<?xml version="1.0" encoding="UTF-8"?>
<svg xmlns="http://www.w3.org/2000/svg" xmlns:xlink="http://www.w3.org/1999/xlink" width="128pt" height="128pt" viewBox="0 0 128 128" version="1.1">
<g id="surface1">
<path style=" stroke:none;fill-rule:nonzero;fill:rgb(7.45098%,7.45098%,7.45098%);fill-opacity:1;" d="M 89.234375 5.855469 L 81.851562 5.855469 L 89.527344 14.1875 L 89.527344 18.15625 L 73.714844 18.15625 L 73.714844 13.511719 L 81.390625 13.511719 L 73.714844 5.179688 L 73.714844 1.207031 L 89.234375 1.207031 Z M 70.578125 5.855469 L 63.191406 5.855469 L 70.871094 14.1875 L 70.871094 18.15625 L 55.054688 18.15625 L 55.054688 13.511719 L 62.734375 13.511719 L 55.054688 5.179688 L 55.054688 1.207031 L 70.578125 1.207031 Z M 52.101562 6.046875 L 44.136719 6.046875 L 44.136719 13.316406 L 52.101562 13.316406 L 52.101562 18.15625 L 38.472656 18.15625 L 38.472656 1.207031 L 52.101562 1.207031 Z M 52.101562 6.046875 "/>
<path style=" stroke:none;fill-rule:nonzero;fill:rgb(8.235294%,44.705882%,71.372549%);fill-opacity:1;" d="M 27.613281 116.707031 L 19.515625 25.894531 L 108.484375 25.894531 L 100.378906 116.691406 L 63.945312 126.792969 Z M 27.613281 116.707031 "/>
<path style=" stroke:none;fill-rule:nonzero;fill:rgb(20%,66.27451%,86.27451%);fill-opacity:1;" d="M 64 119.070312 L 93.441406 110.910156 L 100.367188 33.320312 L 64 33.320312 Z M 64 119.070312 "/>
<path style=" stroke:none;fill-rule:nonzero;fill:rgb(100%,100%,100%);fill-opacity:1;" d="M 64 66.21875 L 78.738281 66.21875 L 79.757812 54.816406 L 64 54.816406 L 64 43.675781 L 91.929688 43.675781 L 91.660156 46.664062 L 88.925781 77.355469 L 64 77.355469 Z M 64 66.21875 "/>
<path style=" stroke:none;fill-rule:nonzero;fill:rgb(92.156863%,92.156863%,92.156863%);fill-opacity:1;" d="M 64.066406 95.144531 L 64.019531 95.160156 L 51.613281 91.808594 L 50.820312 82.925781 L 39.640625 82.925781 L 41.203125 100.414062 L 64.015625 106.746094 L 64.066406 106.734375 Z M 64.066406 95.144531 "/>
<path style=" stroke:none;fill-rule:nonzero;fill:rgb(100%,100%,100%);fill-opacity:1;" d="M 77.792969 76.886719 L 76.449219 91.800781 L 64.027344 95.15625 L 64.027344 106.742188 L 86.859375 100.414062 L 87.027344 98.53125 L 88.96875 76.886719 Z M 77.792969 76.886719 "/>
<path style=" stroke:none;fill-rule:nonzero;fill:rgb(92.156863%,92.156863%,92.156863%);fill-opacity:1;" d="M 64.039062 43.675781 L 64.039062 54.8125 L 37.136719 54.8125 L 36.910156 52.3125 L 36.40625 46.664062 L 36.136719 43.675781 Z M 64 66.222656 L 64 77.359375 L 51.753906 77.359375 L 51.53125 74.855469 L 51.023438 69.210938 L 50.753906 66.222656 Z M 64 66.222656 "/>
</g>
</svg>
