<svg xmlns="http://www.w3.org/2000/svg" xmlns:xlink="http://www.w3.org/1999/xlink" width="128pt" height="128pt" viewBox="0 0 128 128" version="1.1">
<g id="surface1">
<path style=" stroke:none;fill-rule:nonzero;fill:rgb(31.372549%,71.764706%,28.235294%);fill-opacity:1;" d="M 128 64 C 128 99.347656 99.347656 128 64 128 C 28.652344 128 0 99.347656 0 64 C 0 28.652344 28.652344 0 64 0 C 99.347656 0 128 28.652344 128 64 Z M 128 64 "/>
<path style=" stroke:none;fill-rule:nonzero;fill:rgb(6.27451%,65.490196%,6.666667%);fill-opacity:1;" d="M 77.46875 126.488281 C 78.695312 126.25 79.914062 125.976562 81.125 125.667969 C 83.179688 125.09375 85.203125 124.421875 87.1875 123.644531 C 89.175781 122.875 91.128906 122.007812 93.03125 121.042969 C 94.933594 120.074219 96.785156 119.007812 98.582031 117.855469 C 100.375 116.703125 102.113281 115.460938 103.78125 114.136719 C 105.453125 112.808594 107.0625 111.394531 108.59375 109.90625 C 110.121094 108.421875 111.574219 106.859375 112.949219 105.230469 C 114.324219 103.597656 115.617188 101.898438 116.824219 100.136719 C 118.027344 98.375 119.144531 96.558594 120.167969 94.6875 C 121.1875 92.816406 122.117188 90.890625 122.949219 88.925781 C 123.78125 86.960938 124.515625 84.957031 125.144531 82.917969 C 125.6875 81.132812 126.148438 79.324219 126.53125 77.5 L 88.511719 39.480469 C 81.730469 32.699219 72.875 29.3125 64.011719 29.3125 C 55.144531 29.3125 46.269531 32.699219 39.488281 39.480469 C 25.929688 53.039062 25.929688 74.949219 39.488281 88.511719 Z M 77.46875 126.488281 "/>
<path style=" stroke:none;fill-rule:nonzero;fill:rgb(100%,100%,100%);fill-opacity:1;" d="M 64.003906 29.316406 C 72.871094 29.316406 81.734375 32.703125 88.515625 39.484375 C 102.074219 53.042969 102.074219 74.953125 88.515625 88.515625 C 74.953125 102.074219 53.042969 102.074219 39.484375 88.515625 C 25.921875 74.953125 25.921875 53.042969 39.484375 39.484375 C 46.265625 32.703125 55.136719 29.316406 64.003906 29.316406 Z M 79.796875 53.328125 C 79.292969 53.375 78.800781 53.566406 78.402344 53.878906 L 58.921875 68.496094 L 49.890625 59.464844 C 47.929688 57.421875 44.078125 61.273438 46.121094 63.234375 L 56.785156 73.902344 C 57.683594 74.796875 59.25 74.910156 60.265625 74.152344 L 81.597656 58.152344 C 83.394531 56.84375 82.289062 53.359375 80.066406 53.328125 C 79.976562 53.324219 79.886719 53.324219 79.796875 53.328125 Z M 79.796875 53.328125 "/>
</g>
</svg>
