<?xml version="1.0" encoding="UTF-8"?>
<svg xmlns="http://www.w3.org/2000/svg" xmlns:xlink="http://www.w3.org/1999/xlink" width="128pt" height="128pt" viewBox="0 0 128 128" version="1.1">
<g id="surface1">
<path style=" stroke:none;fill-rule:nonzero;fill:rgb(0%,0%,0%);fill-opacity:1;" d="M 56.640625 62.859375 C 56.210938 62.859375 55.925781 62.738281 55.78125 62.5 C 55.632812 62.261719 55.558594 61.859375 55.558594 61.300781 L 55.558594 50.660156 C 55.558594 49.5625 55.320312 48.640625 54.839844 47.878906 C 54.359375 47.121094 53.710938 46.484375 52.941406 46.019531 C 52.117188 45.527344 51.21875 45.175781 50.28125 44.980469 C 49.292969 44.765625 48.289062 44.660156 47.28125 44.660156 C 46.132812 44.660156 45.015625 44.769531 43.921875 44.980469 C 42.878906 45.171875 41.882812 45.550781 40.980469 46.101562 C 40.113281 46.636719 39.398438 47.339844 38.839844 48.21875 C 38.28125 49.101562 37.960938 50.207031 37.878906 51.539062 L 42.441406 51.539062 C 42.546875 50.421875 43.015625 49.59375 43.839844 49.058594 C 44.664062 48.527344 45.71875 48.261719 47 48.261719 C 47.453125 48.261719 47.933594 48.296875 48.441406 48.359375 C 48.945312 48.429688 49.40625 48.558594 49.820312 48.761719 C 50.230469 48.957031 50.585938 49.253906 50.859375 49.621094 C 51.140625 49.992188 51.28125 50.472656 51.28125 51.058594 C 51.28125 51.726562 51.113281 52.226562 50.78125 52.558594 C 50.398438 52.917969 49.929688 53.175781 49.421875 53.300781 C 48.769531 53.472656 48.109375 53.585938 47.441406 53.640625 C 46.648438 53.714844 45.859375 53.828125 45.078125 53.980469 C 44.121094 54.089844 43.164062 54.238281 42.21875 54.441406 C 41.273438 54.640625 40.421875 54.96875 39.660156 55.421875 C 38.898438 55.875 38.285156 56.5 37.820312 57.300781 C 37.351562 58.101562 37.121094 59.140625 37.121094 60.421875 C 37.121094 61.433594 37.3125 62.320312 37.699219 63.078125 C 38.089844 63.839844 38.609375 64.46875 39.261719 64.960938 C 39.910156 65.457031 40.667969 65.828125 41.519531 66.078125 C 42.371094 66.332031 43.265625 66.460938 44.199219 66.460938 C 45.429688 66.460938 46.699219 66.261719 48.019531 65.859375 C 49.339844 65.460938 50.453125 64.820312 51.359375 63.941406 C 51.546875 64.875 51.945312 65.527344 52.558594 65.898438 C 53.265625 66.296875 54.070312 66.492188 54.878906 66.460938 C 55.644531 66.4375 56.402344 66.324219 57.140625 66.121094 C 57.390625 66.050781 57.601562 65.992188 57.761719 65.941406 L 57.761719 62.78125 C 57.550781 62.828125 57.335938 62.855469 57.121094 62.859375 Z M 51 58.9375 C 51 59.65625 50.824219 60.265625 50.480469 60.757812 C 50.132812 61.246094 49.691406 61.664062 49.179688 61.976562 C 48.660156 62.296875 48.105469 62.523438 47.519531 62.65625 C 46.542969 62.886719 45.527344 62.914062 44.539062 62.734375 C 44.046875 62.65625 43.597656 62.515625 43.179688 62.316406 C 42.765625 62.117188 42.410156 61.84375 42.121094 61.496094 C 41.820312 61.136719 41.664062 60.683594 41.679688 60.214844 C 41.679688 59.632812 41.78125 59.132812 41.980469 58.714844 C 42.164062 58.320312 42.449219 57.976562 42.800781 57.714844 C 43.144531 57.464844 43.542969 57.265625 44 57.117188 C 44.453125 56.96875 44.921875 56.855469 45.398438 56.777344 C 46.40625 56.589844 47.421875 56.449219 48.441406 56.355469 C 49.453125 56.265625 50.308594 55.988281 51 55.535156 Z M 78.679688 47.878906 C 77.878906 46.878906 76.871094 46.09375 75.660156 45.519531 C 74.320312 44.921875 72.867188 44.628906 71.398438 44.660156 C 70.066406 44.660156 68.824219 44.921875 67.679688 45.441406 C 66.53125 45.960938 65.640625 46.820312 65 48.019531 L 64.921875 48.019531 L 64.921875 45.21875 L 60.601562 45.21875 L 60.601562 73.539062 L 65.160156 73.539062 L 65.160156 63.21875 L 65.238281 63.21875 C 65.585938 63.78125 66.019531 64.269531 66.539062 64.679688 C 67.058594 65.097656 67.625 65.4375 68.238281 65.699219 C 68.851562 65.964844 69.492188 66.160156 70.160156 66.28125 C 70.824219 66.398438 71.492188 66.460938 72.160156 66.460938 C 73.679688 66.460938 75 66.160156 76.121094 65.558594 C 77.238281 64.960938 78.167969 64.160156 78.898438 63.160156 C 79.632812 62.160156 80.179688 61.007812 80.539062 59.699219 C 80.902344 58.382812 81.082031 57.023438 81.078125 55.660156 C 81.078125 54.140625 80.878906 52.714844 80.480469 51.378906 C 80.078125 50.042969 79.480469 48.878906 78.679688 47.878906 Z M 76.21875 58.238281 C 76.019531 59.109375 75.683594 59.878906 75.21875 60.558594 C 74.753906 61.238281 74.160156 61.796875 73.441406 62.21875 C 72.71875 62.644531 71.839844 62.859375 70.800781 62.859375 C 69.121094 62.894531 67.527344 62.121094 66.519531 60.78125 C 65.992188 60.097656 65.605469 59.3125 65.378906 58.480469 C 65.117188 57.535156 64.992188 56.558594 65 55.578125 C 65 53.367188 65.488281 51.59375 66.460938 50.261719 C 67.433594 48.929688 68.878906 48.261719 70.800781 48.261719 C 71.730469 48.261719 72.558594 48.46875 73.28125 48.878906 C 74 49.296875 74.601562 49.839844 75.078125 50.519531 C 75.558594 51.199219 75.921875 51.980469 76.160156 52.859375 C 76.398438 53.738281 76.519531 54.644531 76.519531 55.578125 C 76.519531 56.484375 76.421875 57.371094 76.21875 58.238281 Z M 85.039062 37.339844 L 89.601562 37.339844 L 89.601562 41.660156 L 85.039062 41.660156 Z M 85.039062 45.21875 L 89.601562 45.21875 L 89.601562 65.898438 L 85.039062 65.898438 Z M 85.039062 45.21875 "/>
<path style=" stroke:none;fill-rule:nonzero;fill:rgb(0%,0%,0%);fill-opacity:1;" d="M 12 12 L 12 116 L 116 116 L 116 12 Z M 20 20 L 108 20 L 108 92 L 20 92 Z M 20 20 "/>
</g>
</svg>
