<?xml version="1.0" encoding="UTF-8"?>
<svg xmlns="http://www.w3.org/2000/svg" xmlns:xlink="http://www.w3.org/1999/xlink" width="128pt" height="128pt" viewBox="0 0 128 128" version="1.1">
<g id="surface1">
<path style=" stroke:none;fill-rule:nonzero;fill:rgb(0%,0%,0%);fill-opacity:1;" d="M 64 0 C 99.34375 0 128 28.65625 128 64 C 128 99.34375 99.34375 128 64 128 C 28.65625 128 0 99.34375 0 64 C 0 28.65625 28.648438 0 64 0 Z M 100.3125 71.261719 L 100.3125 56.75 L 71.261719 56.75 L 71.261719 27.6875 L 56.75 27.6875 L 56.75 56.75 L 27.683594 56.75 L 27.683594 71.273438 L 56.75 71.273438 L 56.75 100.324219 L 71.273438 100.324219 L 71.273438 71.261719 Z M 100.3125 71.261719 "/>
<path style=" stroke:none;fill-rule:nonzero;fill:rgb(0%,0%,0%);fill-opacity:1;" d="M 100.3125 56.738281 L 100.3125 71.261719 L 71.261719 71.261719 L 71.261719 100.3125 L 56.738281 100.3125 L 56.738281 71.261719 L 27.6875 71.261719 L 27.6875 56.738281 L 56.738281 56.738281 L 56.738281 27.6875 L 71.261719 27.6875 L 71.261719 56.738281 Z M 100.3125 56.738281 "/>
<path style=" stroke:none;fill-rule:nonzero;fill:rgb(0%,0%,0%);fill-opacity:1;" d="M 64 112.433594 C 90.707031 112.433594 112.433594 90.707031 112.433594 64 C 112.433594 37.292969 90.707031 15.566406 64 15.566406 C 37.292969 15.566406 15.566406 37.292969 15.566406 64 C 15.566406 90.707031 37.292969 112.433594 64 112.433594 Z M 64 20.566406 C 87.949219 20.566406 107.433594 40.050781 107.433594 64 C 107.433594 87.949219 87.949219 107.433594 64 107.433594 C 40.050781 107.433594 20.566406 87.949219 20.566406 64 C 20.566406 40.050781 40.050781 20.566406 64 20.566406 Z M 64 20.566406 "/>
<path style=" stroke:none;fill-rule:nonzero;fill:rgb(0%,0%,0%);fill-opacity:1;" d="M 37.9375 71.75 L 56.25 71.75 L 56.25 90.0625 C 56.273438 91.433594 57.402344 92.523438 58.773438 92.5 L 69.210938 92.5 C 70.582031 92.53125 71.71875 91.449219 71.75 90.078125 L 71.75 71.75 L 90.0625 71.75 C 91.433594 71.726562 92.523438 70.597656 92.5 69.226562 L 92.5 58.789062 C 92.53125 57.417969 91.449219 56.28125 90.078125 56.25 L 71.75 56.25 L 71.75 37.9375 C 71.726562 36.566406 70.597656 35.476562 69.226562 35.5 L 58.789062 35.5 C 57.417969 35.46875 56.28125 36.550781 56.25 37.921875 L 56.25 56.25 L 37.9375 56.25 C 36.566406 56.273438 35.476562 57.402344 35.5 58.773438 L 35.5 69.210938 C 35.46875 70.582031 36.550781 71.71875 37.921875 71.75 Z M 40.5 61.25 L 58.789062 61.25 C 60.132812 61.265625 61.234375 60.183594 61.25 58.839844 L 61.25 40.5 L 66.75 40.5 L 66.75 58.789062 C 66.734375 60.132812 67.816406 61.234375 69.160156 61.25 L 87.5 61.25 L 87.5 66.75 L 69.210938 66.75 C 67.867188 66.734375 66.765625 67.816406 66.75 69.160156 L 66.75 87.5 L 61.25 87.5 L 61.25 69.210938 C 61.265625 67.867188 60.183594 66.765625 58.839844 66.75 L 40.5 66.75 Z M 40.5 61.25 "/>
</g>
</svg>
