<?xml version="1.0" encoding="UTF-8"?>
<svg xmlns="http://www.w3.org/2000/svg" xmlns:xlink="http://www.w3.org/1999/xlink" width="128pt" height="128pt" viewBox="0 0 128 128" version="1.1">
<g id="surface1">
<path style=" stroke:none;fill-rule:nonzero;fill:rgb(78.039216%,88.627451%,98.823529%);fill-opacity:1;" d="M 110 112 L 42 112 L 42 116 C 42 120.417969 38.417969 124 34 124 C 29.582031 124 26 120.417969 26 116 L 26 12 C 26 7.582031 22.417969 4 18 4 L 98 4 C 104.628906 4 110 9.371094 110 16 Z M 110 112 "/>
<path style=" stroke:none;fill-rule:nonzero;fill:rgb(85.882353%,92.941176%,99.215686%);fill-opacity:1;" d="M 96 23 C 96 16.589844 95.195312 10.207031 93.601562 4 L 18 4 C 22.417969 4 26 7.582031 26 12 L 26 99.601562 C 65.527344 95.804688 95.769531 62.710938 96 23 Z M 96 23 "/>
<path style=" stroke:none;fill-rule:nonzero;fill:rgb(94.901961%,76.470588%,31.764706%);fill-opacity:1;" d="M 94 80.179688 C 94 82.625 93.027344 84.972656 91.296875 86.703125 L 90.699219 87.300781 C 88.96875 89.03125 86.621094 90 84.179688 90 L 51.820312 90 C 49.375 90 47.027344 89.027344 45.296875 87.296875 L 44.699219 86.699219 C 42.96875 84.96875 42 82.621094 42 80.179688 C 42 78.746094 42.332031 77.332031 42.972656 76.050781 L 62.210938 37.578125 C 63.308594 35.386719 65.546875 34 68 34 C 70.453125 34 72.691406 35.386719 73.789062 37.578125 L 93.027344 76.050781 C 93.667969 77.332031 94 78.746094 94 80.179688 Z M 94 80.179688 "/>
<path style=" stroke:none;fill-rule:nonzero;fill:rgb(96.078431%,81.176471%,45.490196%);fill-opacity:1;" d="M 73.789062 37.578125 C 72.691406 35.386719 70.453125 34 68 34 C 65.546875 34 63.308594 35.386719 62.210938 37.578125 L 42.972656 76.050781 C 41.199219 79.605469 41.894531 83.894531 44.703125 86.703125 L 45.300781 87.300781 C 47.03125 89.03125 49.378906 90 51.820312 90 L 56.457031 90 C 68.574219 83.214844 78.65625 73.308594 85.65625 61.316406 Z M 73.789062 37.578125 "/>
<path style=" stroke:none;fill-rule:nonzero;fill:rgb(58.431373%,66.666667%,74.117647%);fill-opacity:1;" d="M 110 112 L 42 112 L 42 116 C 42 120.417969 38.417969 124 34 124 L 110 124 C 114.417969 124 118 120.417969 118 116 L 118 112 Z M 18 4 C 22.417969 4 26 7.582031 26 12 L 26 28 L 10 28 L 10 12 C 10 7.582031 13.582031 4 18 4 Z M 18 4 "/>
<path style=" stroke:none;fill-rule:nonzero;fill:rgb(0%,0%,0%);fill-opacity:1;" d="M 118 110 L 112 110 L 112 16 C 111.992188 8.273438 105.726562 2.007812 98 2 L 18 2 C 12.480469 2.007812 8.007812 6.480469 8 12 L 8 28 C 8 29.105469 8.894531 30 10 30 L 24 30 L 24 116 C 24.007812 121.519531 28.480469 125.992188 34 126 L 110 126 C 115.519531 125.992188 119.992188 121.519531 120 116 L 120 112 C 120 110.894531 119.105469 110 118 110 Z M 24 26 L 12 26 L 12 12 C 12 8.6875 14.6875 6 18 6 C 21.3125 6 24 8.6875 24 12 Z M 40 112 L 40 116 C 40 119.3125 37.3125 122 34 122 C 30.6875 122 28 119.3125 28 116 L 28 12 C 27.992188 9.828125 27.273438 7.722656 25.949219 6 L 98 6 C 103.519531 6.007812 107.992188 10.480469 108 16 L 108 110 L 42 110 C 40.894531 110 40 110.894531 40 112 Z M 116 116 C 116 119.3125 113.3125 122 110 122 L 42 122 C 43.300781 120.269531 44.003906 118.164062 44 116 L 44 114 L 116 114 Z M 116 116 "/>
<path style=" stroke:none;fill-rule:nonzero;fill:rgb(0%,0%,0%);fill-opacity:1;" d="M 43.882812 88.710938 C 45.984375 90.824219 48.84375 92.007812 51.820312 92 L 84.179688 92 C 87.15625 92.007812 90.015625 90.824219 92.113281 88.710938 L 92.714844 88.113281 C 94.824219 86.011719 96.007812 83.15625 96 80.179688 C 95.996094 78.4375 95.59375 76.71875 94.816406 75.15625 L 75.578125 36.683594 C 74.144531 33.8125 71.210938 32 68 32 C 64.789062 32 61.855469 33.8125 60.421875 36.683594 L 41.183594 75.15625 C 40.40625 76.71875 40.003906 78.4375 40 80.179688 C 39.992188 83.160156 41.175781 86.019531 43.289062 88.121094 Z M 44.761719 76.949219 L 64 38.472656 C 64.757812 36.957031 66.304688 36 68 36 C 69.695312 36 71.242188 36.957031 72 38.472656 L 91.238281 76.949219 C 91.738281 77.953125 92 79.058594 92 80.179688 C 92.003906 82.09375 91.246094 83.933594 89.886719 85.289062 L 89.285156 85.886719 C 87.933594 87.246094 86.09375 88.007812 84.179688 88 L 51.820312 88 C 49.902344 88.003906 48.0625 87.242188 46.710938 85.878906 L 46.109375 85.289062 C 44.753906 83.9375 43.992188 82.09375 44 80.179688 C 44 79.058594 44.261719 77.953125 44.761719 76.949219 Z M 44.761719 76.949219 "/>
<path style=" stroke:none;fill-rule:nonzero;fill:rgb(0%,0%,0%);fill-opacity:1;" d="M 68 70 C 69.105469 70 70 69.105469 70 68 L 70 50 C 70 48.894531 69.105469 48 68 48 C 66.894531 48 66 48.894531 66 50 L 66 68 C 66 69.105469 66.894531 70 68 70 Z M 68 80 C 69.105469 80 70 79.105469 70 78 L 70 76 C 70 74.894531 69.105469 74 68 74 C 66.894531 74 66 74.894531 66 76 L 66 78 C 66 79.105469 66.894531 80 68 80 Z M 68 80 "/>
</g>
</svg>
