<?xml version="1.0" encoding="UTF-8"?>
<svg xmlns="http://www.w3.org/2000/svg" xmlns:xlink="http://www.w3.org/1999/xlink" width="128pt" height="128pt" viewBox="0 0 128 128" version="1.1">
<g id="surface1">
<path style=" stroke:none;fill-rule:nonzero;fill:rgb(0%,47.843137%,72.54902%);fill-opacity:1;" d="M 128 64 C 128 99.34375 99.347656 128 64 128 C 28.652344 128 0 99.34375 0 64 C 0 28.652344 28.652344 0 64 0 C 99.347656 0 128 28.652344 128 64 Z M 128 64 "/>
<path style=" stroke:none;fill-rule:nonzero;fill:rgb(94.509804%,94.901961%,94.901961%);fill-opacity:1;" d="M 102.238281 69.148438 L 102.238281 95.535156 L 86.941406 95.535156 L 86.941406 70.917969 C 86.941406 64.734375 84.734375 60.515625 79.195312 60.515625 C 74.96875 60.515625 72.457031 63.355469 71.347656 66.109375 C 70.945312 67.089844 70.839844 68.457031 70.839844 69.835938 L 70.839844 95.535156 L 55.542969 95.535156 C 55.542969 95.535156 55.746094 53.839844 55.542969 49.523438 L 70.839844 49.523438 L 70.839844 56.042969 C 70.8125 56.09375 70.769531 56.144531 70.738281 56.195312 L 70.839844 56.195312 L 70.839844 56.042969 C 72.875 52.914062 76.5 48.441406 84.628906 48.441406 C 94.695312 48.441406 102.238281 55.019531 102.238281 69.148438 Z M 39.539062 27.34375 C 34.304688 27.34375 30.878906 30.78125 30.878906 35.292969 C 30.878906 39.710938 34.207031 43.246094 39.335938 43.246094 L 39.4375 43.246094 C 44.773438 43.246094 48.089844 39.710938 48.089844 35.292969 C 47.988281 30.78125 44.773438 27.34375 39.539062 27.34375 Z M 31.789062 95.535156 L 47.082031 95.535156 L 47.082031 49.523438 L 31.789062 49.523438 Z M 31.789062 95.535156 "/>
</g>
</svg>
