<?xml version="1.0" encoding="UTF-8"?>
<svg xmlns="http://www.w3.org/2000/svg" xmlns:xlink="http://www.w3.org/1999/xlink" width="128pt" height="128pt" viewBox="0 0 128 128" version="1.1">
<g id="surface1">
<path style=" stroke:none;fill-rule:nonzero;fill:rgb(21.960784%,55.686275%,23.529412%);fill-opacity:1;" d="M 45.875 50.988281 L 32.792969 58.230469 C 32.308594 58.488281 32.003906 58.992188 32 59.542969 L 32 74.03125 C 32 74.574219 32.300781 75.070312 32.792969 75.34375 L 45.875 82.59375 C 46.367188 82.851562 46.96875 82.851562 47.457031 82.59375 L 60.542969 75.339844 C 61.023438 75.082031 61.328125 74.578125 61.332031 74.03125 L 61.332031 59.542969 C 61.328125 58.992188 61.023438 58.488281 60.542969 58.230469 L 47.457031 50.988281 C 47.214844 50.859375 46.941406 50.789062 46.667969 50.792969 C 46.390625 50.789062 46.117188 50.859375 45.875 50.988281 "/>
<path style=" stroke:none;fill-rule:nonzero;fill:rgb(21.960784%,55.686275%,23.529412%);fill-opacity:1;" d="M 113.199219 64.03125 L 111.019531 65.238281 C 110.9375 65.28125 110.894531 65.367188 110.894531 65.457031 L 110.894531 67.875 C 110.894531 67.96875 110.9375 68.054688 111.019531 68.09375 L 113.199219 69.300781 C 113.28125 69.34375 113.382812 69.34375 113.46875 69.300781 L 115.644531 68.09375 C 115.730469 68.050781 115.78125 67.96875 115.78125 67.875 L 115.78125 65.457031 C 115.78125 65.367188 115.730469 65.28125 115.648438 65.238281 L 113.46875 64.03125 C 113.425781 64.011719 113.378906 64 113.332031 64 C 113.285156 64 113.242188 64.011719 113.199219 64.03125 "/>
<path style=" stroke:none;fill-rule:nonzero;fill:rgb(21.568627%,27.843137%,30.980392%);fill-opacity:1;" d="M 95.332031 35.632812 L 88.96875 32.082031 C 88.769531 31.964844 88.519531 31.96875 88.324219 32.09375 C 88.125 32.207031 88 32.417969 88 32.644531 L 88 54.125 L 82.125 50.863281 C 81.882812 50.734375 81.609375 50.664062 81.332031 50.667969 C 81.058594 50.664062 80.785156 50.734375 80.542969 50.863281 L 67.457031 58.105469 C 66.976562 58.363281 66.671875 58.867188 66.667969 59.414062 L 66.667969 73.90625 C 66.667969 74.449219 66.96875 74.945312 67.457031 75.21875 L 80.542969 82.46875 C 81.03125 82.726562 81.632812 82.726562 82.125 82.46875 L 95.207031 75.21875 C 95.691406 74.957031 95.996094 74.457031 96 73.90625 L 96 36.769531 C 95.996094 36.300781 95.742188 35.867188 95.332031 35.632812 Z M 87.644531 70.550781 L 81.699219 73.84375 C 81.476562 73.96875 81.203125 73.96875 80.980469 73.84375 L 75.03125 70.550781 C 74.808594 70.4375 74.671875 70.207031 74.667969 69.957031 L 74.667969 63.375 C 74.667969 63.125 74.800781 62.894531 75.03125 62.769531 L 80.980469 59.480469 L 80.96875 59.480469 C 81.082031 59.421875 81.207031 59.390625 81.332031 59.394531 C 81.457031 59.394531 81.585938 59.425781 81.699219 59.480469 L 87.632812 62.769531 C 87.859375 62.890625 88 63.121094 88 63.375 L 88 69.957031 C 87.996094 70.203125 87.859375 70.429688 87.644531 70.550781 Z M 87.644531 70.550781 "/>
<path style=" stroke:none;fill-rule:nonzero;fill:rgb(18.039216%,49.019608%,19.607843%);fill-opacity:1;" d="M 45.875 50.988281 L 32 74.03125 C 32 74.574219 32.300781 75.070312 32.792969 75.34375 L 45.875 82.59375 C 46.367188 82.851562 46.96875 82.851562 47.457031 82.59375 L 61.332031 59.542969 C 61.328125 58.992188 61.023438 58.488281 60.542969 58.230469 L 47.457031 50.988281 C 47.214844 50.859375 46.941406 50.789062 46.667969 50.792969 C 46.390625 50.789062 46.117188 50.859375 45.875 50.988281 "/>
<path style=" stroke:none;fill-rule:nonzero;fill:rgb(29.803922%,68.627451%,31.372549%);fill-opacity:1;" d="M 45.875 50.988281 L 32.792969 58.230469 C 32.308594 58.488281 32.003906 58.992188 32 59.542969 L 45.875 82.59375 C 46.367188 82.851562 46.96875 82.851562 47.457031 82.59375 L 60.542969 75.339844 C 61.023438 75.082031 61.328125 74.578125 61.332031 74.03125 L 47.457031 50.992188 C 47.214844 50.859375 46.941406 50.792969 46.667969 50.792969 C 46.390625 50.789062 46.117188 50.859375 45.875 50.988281 "/>
<path style=" stroke:none;fill-rule:nonzero;fill:rgb(21.568627%,27.843137%,30.980392%);fill-opacity:1;" d="M 127.207031 58.105469 L 114.125 50.863281 C 113.882812 50.734375 113.609375 50.664062 113.332031 50.667969 C 113.058594 50.664062 112.785156 50.734375 112.542969 50.863281 L 99.457031 58.105469 C 98.972656 58.375 98.667969 58.890625 98.667969 59.449219 L 98.667969 73.875 C 98.667969 74.4375 98.96875 74.945312 99.457031 75.21875 L 112.542969 82.46875 C 113.042969 82.738281 113.632812 82.738281 114.125 82.46875 L 120.167969 79.125 C 120.71875 78.824219 120.710938 78.03125 120.15625 77.71875 L 107.03125 70.5625 C 106.808594 70.4375 106.671875 70.203125 106.667969 69.949219 L 106.667969 63.375 C 106.667969 63.132812 106.800781 62.90625 107.011719 62.78125 L 112.96875 59.492188 C 113.078125 59.429688 113.207031 59.394531 113.332031 59.394531 C 113.457031 59.394531 113.582031 59.425781 113.6875 59.492188 L 119.644531 62.792969 C 119.863281 62.90625 120 63.128906 120 63.375 L 120 68.738281 C 120 68.96875 120.125 69.1875 120.324219 69.300781 C 120.519531 69.40625 120.761719 69.40625 120.96875 69.289062 L 127.367188 65.585938 C 127.757812 65.347656 127.996094 64.925781 128 64.46875 L 128 59.457031 C 128 58.894531 127.699219 58.378906 127.207031 58.105469 Z M 127.207031 58.105469 "/>
<path style=" stroke:none;fill-rule:nonzero;fill:rgb(21.568627%,27.843137%,30.980392%);fill-opacity:1;" d="M 28.542969 58.105469 L 15.457031 50.863281 C 15.214844 50.734375 14.941406 50.664062 14.667969 50.667969 C 14.390625 50.664062 14.117188 50.734375 13.875 50.863281 L 0.792969 58.105469 C 0.304688 58.378906 0 58.890625 0 59.449219 L 0 79.355469 C 0 79.585938 0.125 79.804688 0.324219 79.917969 C 0.523438 80.03125 0.769531 80.03125 0.96875 79.917969 L 7.367188 76.199219 C 7.761719 75.96875 8.003906 75.542969 8 75.082031 L 8 63.375 C 8 63.125 8.132812 62.894531 8.34375 62.78125 L 14.300781 59.492188 C 14.527344 59.367188 14.804688 59.367188 15.03125 59.492188 L 20.988281 62.78125 C 21.199219 62.90625 21.332031 63.132812 21.332031 63.375 L 21.332031 75.082031 C 21.332031 75.542969 21.574219 75.96875 21.96875 76.199219 L 28.367188 79.917969 C 28.566406 80.03125 28.8125 80.03125 29.011719 79.917969 C 29.210938 79.800781 29.332031 79.585938 29.332031 79.355469 L 29.332031 59.457031 C 29.335938 58.898438 29.03125 58.378906 28.542969 58.105469 Z M 28.542969 58.105469 "/>
</g>
</svg>
