<?xml version="1.0" encoding="UTF-8"?>
<svg xmlns="http://www.w3.org/2000/svg" xmlns:xlink="http://www.w3.org/1999/xlink" width="128pt" height="128pt" viewBox="0 0 128 128" version="1.1">
<g id="surface1">
<path style=" stroke:none;fill-rule:evenodd;fill:rgb(93.72549%,29.803922%,27.058824%);fill-opacity:1;" d="M 128 64.003906 C 128 99.351562 99.347656 128.003906 64 128.003906 C 28.65625 128.003906 0 99.351562 0 64.003906 C 0 28.65625 28.65625 0.00390625 64 0.00390625 C 99.347656 0.00390625 128 28.65625 128 64.003906 Z M 128 64.003906 "/>
<path style=" stroke:none;fill-rule:nonzero;fill:rgb(87.45098%,13.333333%,3.529412%);fill-opacity:1;" d="M 77.449219 126.488281 C 78.679688 126.25 79.90625 125.976562 81.125 125.667969 C 83.179688 125.09375 85.203125 124.421875 87.1875 123.644531 C 89.175781 122.875 91.128906 122.007812 93.03125 121.042969 C 94.933594 120.074219 96.785156 119.007812 98.582031 117.855469 C 100.375 116.703125 102.113281 115.460938 103.78125 114.136719 C 105.453125 112.808594 107.0625 111.394531 108.59375 109.90625 C 110.121094 108.421875 111.574219 106.859375 112.949219 105.230469 C 114.324219 103.597656 115.617188 101.898438 116.824219 100.136719 C 118.027344 98.375 119.144531 96.558594 120.167969 94.6875 C 121.1875 92.816406 122.117188 90.890625 122.949219 88.925781 C 123.78125 86.960938 124.515625 84.957031 125.144531 82.917969 C 125.6875 81.128906 126.148438 79.316406 126.53125 77.488281 L 88.519531 39.480469 C 82.25 33.210938 73.589844 29.332031 64 29.332031 C 44.824219 29.332031 29.332031 44.824219 29.332031 64 C 29.332031 73.589844 33.210938 82.25 39.480469 88.519531 Z M 77.449219 126.488281 "/>
<path style=" stroke:none;fill-rule:nonzero;fill:rgb(100%,100%,100%);fill-opacity:1;" d="M 64 29.332031 C 83.175781 29.332031 98.667969 44.824219 98.667969 64 C 98.667969 83.175781 83.175781 98.667969 64 98.667969 C 44.824219 98.667969 29.332031 83.175781 29.332031 64 C 29.332031 44.824219 44.824219 29.332031 64 29.332031 Z M 45.0625 61.332031 C 43.667969 61.402344 42.460938 62.738281 42.53125 64.136719 C 42.601562 65.53125 43.9375 66.738281 45.332031 66.667969 L 82.667969 66.667969 C 84.074219 66.6875 85.371094 65.410156 85.371094 64 C 85.371094 62.589844 84.074219 61.3125 82.667969 61.332031 L 45.332031 61.332031 C 45.242188 61.328125 45.152344 61.328125 45.0625 61.332031 Z M 45.0625 61.332031 "/>
</g>
</svg>
