<?xml version="1.0" encoding="UTF-8"?>
<svg xmlns="http://www.w3.org/2000/svg" xmlns:xlink="http://www.w3.org/1999/xlink" width="128pt" height="128pt" viewBox="0 0 128 128" version="1.1">
<g id="surface1">
<path style=" stroke:none;fill-rule:nonzero;fill:rgb(100%,100%,100%);fill-opacity:1;" d="M 21.011719 91.125 C 15.472656 91.128906 10.972656 86.621094 10.972656 81.085938 L 10.972656 50.347656 C 10.96875 44.8125 15.46875 40.308594 21 40.308594 C 23.6875 40.304688 26.207031 41.347656 28.105469 43.246094 C 30.003906 45.140625 31.046875 47.664062 31.046875 50.34375 L 31.046875 81.085938 C 31.050781 83.761719 30.011719 86.28125 28.113281 88.179688 C 26.222656 90.078125 23.695312 91.125 21.011719 91.125 M 21.003906 43.003906 C 16.949219 43.003906 13.664062 46.296875 13.664062 50.347656 L 13.671875 81.082031 C 13.671875 85.144531 16.960938 88.425781 21.011719 88.429688 C 25.066406 88.425781 28.355469 85.144531 28.351562 81.082031 L 28.351562 50.34375 C 28.347656 46.292969 25.058594 43.003906 21.003906 43.003906 "/>
<path style=" stroke:none;fill-rule:nonzero;fill:rgb(100%,100%,100%);fill-opacity:1;" d="M 99.742188 44.527344 L 97.042969 44.527344 L 30.925781 44.535156 L 28.226562 44.535156 L 28.222656 41.835938 C 28.21875 30.757812 34.253906 20.453125 44.140625 14.363281 L 40.296875 7.347656 C 39.828125 6.523438 39.710938 5.484375 39.984375 4.53125 C 40.261719 3.578125 40.917969 2.761719 41.796875 2.292969 C 42.304688 2.003906 42.929688 1.84375 43.554688 1.847656 C 44.917969 1.847656 46.164062 2.585938 46.824219 3.777344 L 50.847656 11.109375 C 55.007812 9.582031 59.402344 8.800781 63.945312 8.804688 C 68.550781 8.800781 72.96875 9.578125 77.148438 11.113281 L 81.164062 3.773438 C 81.8125 2.582031 83.070312 1.839844 84.429688 1.839844 C 85.039062 1.839844 85.652344 1.988281 86.191406 2.277344 C 87.09375 2.773438 87.722656 3.566406 88 4.523438 C 88.277344 5.476562 88.164062 6.484375 87.683594 7.355469 L 83.839844 14.367188 C 93.710938 20.46875 99.738281 30.765625 99.738281 41.828125 Z M 80.195312 15.402344 L 85.320312 6.046875 C 85.59375 5.558594 85.414062 4.933594 84.921875 4.660156 C 84.417969 4.390625 83.800781 4.574219 83.535156 5.066406 L 78.359375 14.515625 C 74.007812 12.582031 69.132812 11.496094 63.976562 11.5 C 58.835938 11.496094 53.96875 12.578125 49.628906 14.507812 L 44.449219 5.078125 C 44.179688 4.578125 43.558594 4.398438 43.070312 4.671875 C 42.570312 4.9375 42.390625 5.5625 42.664062 6.050781 L 47.789062 15.398438 C 37.722656 20.59375 30.917969 30.484375 30.921875 41.839844 L 97.039062 41.828125 C 97.042969 30.480469 90.253906 20.609375 80.195312 15.402344 M 48.941406 29.859375 C 47.417969 29.855469 46.175781 28.617188 46.175781 27.089844 C 46.175781 25.566406 47.417969 24.316406 48.941406 24.316406 C 50.476562 24.3125 51.714844 25.566406 51.71875 27.089844 C 51.71875 28.617188 50.476562 29.859375 48.941406 29.859375 M 79.046875 29.855469 C 77.519531 29.855469 76.273438 28.617188 76.273438 27.082031 C 76.273438 25.5625 77.515625 24.3125 79.046875 24.304688 C 80.570312 24.308594 81.816406 25.5625 81.816406 27.085938 C 81.816406 28.613281 80.574219 29.855469 79.046875 29.855469 M 51.710938 126.160156 C 46.179688 126.15625 41.675781 121.65625 41.675781 116.121094 L 41.671875 102.554688 L 39.035156 102.558594 C 36.21875 102.558594 33.574219 101.464844 31.585938 99.476562 C 29.597656 97.488281 28.5 94.84375 28.503906 92.023438 L 28.492188 44.394531 L 28.492188 41.695312 L 31.191406 41.695312 L 96.816406 41.683594 L 99.515625 41.683594 L 99.515625 44.382812 L 99.523438 92.015625 C 99.523438 97.824219 94.796875 102.550781 88.988281 102.550781 L 86.335938 102.550781 L 86.339844 116.113281 C 86.339844 121.648438 81.835938 126.152344 76.304688 126.152344 C 73.625 126.160156 71.109375 125.117188 69.207031 123.214844 C 67.308594 121.320312 66.261719 118.800781 66.261719 116.121094 L 66.261719 102.550781 L 61.75 102.550781 L 61.75 116.117188 C 61.746094 121.652344 57.246094 126.160156 51.710938 126.160156 "/>
<path style=" stroke:none;fill-rule:nonzero;fill:rgb(100%,100%,100%);fill-opacity:1;" d="M 31.203125 92.023438 C 31.199219 96.359375 34.703125 99.859375 39.035156 99.859375 L 44.367188 99.859375 L 44.375 116.121094 C 44.375 120.171875 47.664062 123.464844 51.710938 123.464844 C 55.765625 123.464844 59.050781 120.171875 59.046875 116.117188 L 59.050781 99.859375 L 68.957031 99.855469 L 68.957031 116.117188 C 68.960938 120.167969 72.253906 123.464844 76.300781 123.457031 C 80.355469 123.460938 83.644531 120.164062 83.644531 116.113281 L 83.636719 99.851562 L 88.992188 99.851562 C 93.308594 99.851562 96.824219 96.34375 96.824219 92.015625 L 96.8125 44.378906 L 31.191406 44.390625 Z M 106.996094 91.113281 C 101.460938 91.113281 96.957031 86.613281 96.957031 81.074219 L 96.949219 50.339844 C 96.953125 44.800781 101.449219 40.296875 106.980469 40.296875 C 112.519531 40.296875 117.027344 44.800781 117.027344 50.335938 L 117.027344 81.070312 C 117.03125 86.605469 112.53125 91.113281 106.996094 91.113281 M 106.984375 42.996094 C 102.933594 42.992188 99.648438 46.28125 99.648438 50.339844 L 99.652344 81.074219 C 99.652344 85.132812 102.9375 88.417969 106.992188 88.414062 C 111.046875 88.414062 114.328125 85.132812 114.332031 81.070312 L 114.324219 50.335938 C 114.324219 46.28125 111.039062 42.992188 106.984375 42.996094 "/>
<path style=" stroke:none;fill-rule:nonzero;fill:rgb(64.313725%,76.862745%,22.352941%);fill-opacity:1;" d="M 21.003906 43.003906 C 16.949219 43.003906 13.664062 46.296875 13.664062 50.347656 L 13.671875 81.082031 C 13.671875 85.144531 16.957031 88.425781 21.011719 88.425781 C 25.066406 88.425781 28.355469 85.144531 28.351562 81.082031 L 28.351562 50.34375 C 28.347656 46.292969 25.058594 43.003906 21.003906 43.003906 M 80.195312 15.402344 L 85.320312 6.046875 C 85.59375 5.558594 85.414062 4.9375 84.917969 4.660156 C 84.417969 4.394531 83.800781 4.574219 83.535156 5.066406 L 78.359375 14.519531 C 74.007812 12.582031 69.132812 11.496094 63.976562 11.5 C 58.835938 11.496094 53.964844 12.578125 49.628906 14.507812 L 44.449219 5.078125 C 44.179688 4.578125 43.558594 4.398438 43.070312 4.671875 C 42.570312 4.941406 42.390625 5.5625 42.664062 6.050781 L 47.789062 15.398438 C 37.722656 20.59375 30.917969 30.484375 30.921875 41.839844 L 97.039062 41.828125 C 97.042969 30.480469 90.253906 20.609375 80.195312 15.402344 M 48.941406 29.859375 C 47.417969 29.855469 46.175781 28.617188 46.175781 27.089844 C 46.175781 25.566406 47.414062 24.3125 48.941406 24.316406 C 50.476562 24.3125 51.714844 25.566406 51.71875 27.089844 C 51.71875 28.617188 50.476562 29.859375 48.941406 29.859375 M 79.046875 29.855469 C 77.519531 29.855469 76.273438 28.617188 76.273438 27.082031 C 76.28125 25.5625 77.515625 24.3125 79.046875 24.304688 C 80.570312 24.308594 81.816406 25.5625 81.816406 27.085938 C 81.816406 28.613281 80.574219 29.855469 79.046875 29.855469 M 31.191406 44.390625 L 31.203125 92.027344 C 31.199219 96.359375 34.707031 99.859375 39.035156 99.859375 L 44.367188 99.859375 L 44.375 116.125 C 44.375 120.175781 47.664062 123.464844 51.710938 123.464844 C 55.765625 123.464844 59.050781 120.171875 59.054688 116.117188 L 59.050781 99.859375 L 68.957031 99.855469 L 68.960938 116.117188 C 68.960938 120.164062 72.253906 123.464844 76.300781 123.457031 C 80.355469 123.460938 83.644531 120.164062 83.644531 116.113281 L 83.636719 99.855469 L 88.988281 99.851562 C 93.308594 99.851562 96.824219 96.351562 96.824219 92.015625 L 96.816406 44.382812 Z M 114.328125 50.335938 C 114.324219 46.28125 111.039062 42.992188 106.984375 42.996094 C 102.933594 42.992188 99.648438 46.28125 99.648438 50.339844 L 99.65625 81.074219 C 99.652344 85.132812 102.9375 88.414062 106.992188 88.414062 C 111.046875 88.414062 114.332031 85.132812 114.332031 81.070312 Z M 114.328125 50.335938 "/>
</g>
</svg>
