<?xml version="1.0" encoding="UTF-8"?>
<svg xmlns="http://www.w3.org/2000/svg" xmlns:xlink="http://www.w3.org/1999/xlink" width="128pt" height="128pt" viewBox="0 0 128 128" version="1.1">
<g id="surface1">
<path style=" stroke:none;fill-rule:nonzero;fill:rgb(35.686275%,25.882353%,50.980392%);fill-opacity:1;" d="M 9.53125 112.585938 L 13.691406 112.585938 C 15.589844 112.585938 16.964844 112.855469 17.820312 113.394531 C 18.679688 113.9375 19.105469 114.792969 19.105469 115.972656 C 19.105469 116.769531 18.917969 117.425781 18.542969 117.9375 C 18.167969 118.449219 17.667969 118.757812 17.046875 118.859375 L 17.046875 118.953125 C 17.894531 119.140625 18.507812 119.496094 18.882812 120.011719 C 19.257812 120.53125 19.445312 121.21875 19.445312 122.078125 C 19.445312 123.300781 19.003906 124.25 18.121094 124.933594 C 17.242188 125.617188 16.042969 125.957031 14.53125 125.957031 L 9.53125 125.957031 Z M 12.367188 117.882812 L 14.011719 117.882812 C 14.78125 117.882812 15.335938 117.761719 15.679688 117.527344 C 16.027344 117.289062 16.199219 116.894531 16.199219 116.347656 C 16.199219 115.835938 16.011719 115.46875 15.636719 115.242188 C 15.261719 115.019531 14.667969 114.910156 13.855469 114.910156 L 12.367188 114.910156 Z M 12.367188 120.132812 L 12.367188 123.617188 L 14.214844 123.617188 C 14.992188 123.617188 15.570312 123.46875 15.941406 123.167969 C 16.316406 122.871094 16.5 122.414062 16.5 121.796875 C 16.5 120.6875 15.707031 120.132812 14.121094 120.132812 Z M 34.253906 119.253906 C 34.253906 121.46875 33.703125 123.167969 32.605469 124.359375 C 31.507812 125.546875 29.9375 126.140625 27.886719 126.140625 C 25.839844 126.140625 24.265625 125.546875 23.167969 124.359375 C 22.070312 123.167969 21.523438 121.460938 21.523438 119.234375 C 21.523438 117.011719 22.070312 115.3125 23.171875 114.136719 C 24.273438 112.964844 25.851562 112.375 27.90625 112.375 C 29.960938 112.375 31.53125 112.96875 32.621094 114.148438 C 33.707031 115.332031 34.253906 117.035156 34.253906 119.253906 Z M 24.492188 119.253906 C 24.492188 120.746094 24.777344 121.871094 25.34375 122.628906 C 25.910156 123.386719 26.757812 123.761719 27.886719 123.761719 C 30.148438 123.761719 31.28125 122.261719 31.28125 119.253906 C 31.28125 116.242188 30.15625 114.734375 27.90625 114.734375 C 26.777344 114.734375 25.925781 115.113281 25.351562 115.875 C 24.78125 116.636719 24.492188 117.761719 24.492188 119.253906 Z M 49.160156 119.253906 C 49.160156 121.46875 48.613281 123.167969 47.515625 124.359375 C 46.417969 125.546875 44.84375 126.140625 42.796875 126.140625 C 40.746094 126.140625 39.175781 125.546875 38.078125 124.359375 C 36.980469 123.167969 36.429688 121.460938 36.429688 119.234375 C 36.429688 117.011719 36.980469 115.3125 38.082031 114.136719 C 39.183594 112.964844 40.761719 112.375 42.816406 112.375 C 44.871094 112.375 46.441406 112.96875 47.53125 114.148438 C 48.617188 115.332031 49.160156 117.035156 49.160156 119.253906 Z M 39.402344 119.253906 C 39.402344 120.746094 39.683594 121.871094 40.253906 122.628906 C 40.820312 123.386719 41.667969 123.761719 42.796875 123.761719 C 45.058594 123.761719 46.1875 122.261719 46.1875 119.253906 C 46.1875 116.242188 45.0625 114.734375 42.8125 114.734375 C 41.683594 114.734375 40.835938 115.113281 40.261719 115.875 C 39.6875 116.636719 39.402344 117.761719 39.402344 119.253906 Z M 57.089844 125.957031 L 54.253906 125.957031 L 54.253906 114.945312 L 50.625 114.945312 L 50.625 112.585938 L 60.722656 112.585938 L 60.722656 114.945312 L 57.089844 114.945312 Z M 70.671875 122.246094 C 70.671875 123.453125 70.238281 124.402344 69.367188 125.097656 C 68.5 125.792969 67.289062 126.140625 65.742188 126.140625 C 64.316406 126.140625 63.054688 125.871094 61.957031 125.335938 L 61.957031 122.703125 C 62.859375 123.105469 63.621094 123.390625 64.246094 123.554688 C 64.871094 123.71875 65.441406 123.800781 65.960938 123.800781 C 66.585938 123.800781 67.0625 123.683594 67.394531 123.445312 C 67.726562 123.207031 67.890625 122.855469 67.890625 122.382812 C 67.890625 122.121094 67.820312 121.890625 67.671875 121.683594 C 67.527344 121.480469 67.3125 121.28125 67.027344 121.09375 C 66.742188 120.90625 66.167969 120.601562 65.296875 120.1875 C 64.476562 119.804688 63.863281 119.4375 63.457031 119.082031 C 63.046875 118.726562 62.722656 118.316406 62.476562 117.847656 C 62.234375 117.378906 62.113281 116.828125 62.113281 116.203125 C 62.113281 115.019531 62.511719 114.089844 63.316406 113.410156 C 64.117188 112.734375 65.226562 112.398438 66.640625 112.398438 C 67.335938 112.398438 67.996094 112.480469 68.628906 112.644531 C 69.261719 112.808594 69.921875 113.039062 70.609375 113.339844 L 69.695312 115.542969 C 68.980469 115.25 68.390625 115.046875 67.925781 114.929688 C 67.457031 114.8125 67 114.757812 66.546875 114.757812 C 66.011719 114.757812 65.601562 114.882812 65.3125 115.132812 C 65.027344 115.382812 64.882812 115.707031 64.882812 116.109375 C 64.882812 116.359375 64.941406 116.578125 65.058594 116.765625 C 65.171875 116.949219 65.355469 117.128906 65.609375 117.304688 C 65.863281 117.476562 66.460938 117.789062 67.40625 118.242188 C 68.65625 118.839844 69.515625 119.4375 69.976562 120.039062 C 70.441406 120.640625 70.671875 121.371094 70.671875 122.246094 Z M 78.253906 125.957031 L 75.417969 125.957031 L 75.417969 114.945312 L 71.789062 114.945312 L 71.789062 112.585938 L 81.886719 112.585938 L 81.886719 114.945312 L 78.253906 114.945312 Z M 86.777344 120.828125 L 86.777344 125.957031 L 83.941406 125.957031 L 83.941406 112.585938 L 87.839844 112.585938 C 89.65625 112.585938 91 112.917969 91.871094 113.578125 C 92.742188 114.238281 93.179688 115.246094 93.179688 116.59375 C 93.179688 117.378906 92.964844 118.078125 92.53125 118.691406 C 92.097656 119.304688 91.484375 119.785156 90.691406 120.132812 C 92.703125 123.136719 94.015625 125.078125 94.625 125.957031 L 91.480469 125.957031 L 88.289062 120.824219 L 86.777344 120.824219 Z M 86.777344 118.523438 L 87.691406 118.523438 C 88.589844 118.523438 89.25 118.371094 89.679688 118.074219 C 90.105469 117.773438 90.316406 117.304688 90.316406 116.664062 C 90.316406 116.03125 90.101562 115.578125 89.664062 115.3125 C 89.226562 115.042969 88.554688 114.910156 87.636719 114.910156 L 86.777344 114.910156 Z M 104.492188 125.957031 L 103.523438 122.773438 L 98.648438 122.773438 L 97.679688 125.957031 L 94.625 125.957031 L 99.34375 112.53125 L 102.808594 112.53125 L 107.546875 125.957031 Z M 102.847656 120.398438 C 101.949219 117.511719 101.445312 115.882812 101.332031 115.503906 C 101.21875 115.125 101.140625 114.828125 101.089844 114.609375 C 100.890625 115.386719 100.3125 117.316406 99.363281 120.398438 Z M 118.46875 116.757812 C 118.46875 118.195312 118.019531 119.296875 117.121094 120.058594 C 116.222656 120.820312 114.941406 121.203125 113.28125 121.203125 L 112.066406 121.203125 L 112.066406 125.957031 L 109.230469 125.957031 L 109.230469 112.585938 L 113.503906 112.585938 C 115.125 112.585938 116.359375 112.933594 117.203125 113.632812 C 118.046875 114.332031 118.46875 115.371094 118.46875 116.757812 Z M 112.066406 118.878906 L 113 118.878906 C 113.871094 118.878906 114.523438 118.707031 114.957031 118.363281 C 115.390625 118.015625 115.605469 117.515625 115.605469 116.859375 C 115.605469 116.191406 115.425781 115.703125 115.0625 115.386719 C 114.699219 115.066406 114.128906 114.910156 113.355469 114.910156 L 112.066406 114.910156 Z M 73.949219 56.757812 C 71.96875 56.105469 69.113281 56 65.386719 56 L 52 56 L 52 76 L 66.425781 76 C 68.925781 76 70.683594 75.75 71.695312 75.5625 C 73.476562 75.246094 74.96875 74.632812 76.167969 73.886719 C 77.363281 73.144531 78.351562 72.019531 79.121094 70.59375 C 79.894531 69.171875 80.28125 67.507812 80.28125 65.644531 C 80.28125 63.460938 79.722656 61.664062 78.601562 60.054688 C 77.484375 58.441406 75.933594 57.410156 73.949219 56.757812 Z M 71.894531 48.148438 C 73.863281 47.5625 75.351562 46.5 76.347656 45.144531 C 77.347656 43.785156 77.84375 42.039062 77.84375 39.988281 C 77.84375 38.046875 77.378906 36.316406 76.445312 34.835938 C 75.515625 33.359375 74.183594 32.355469 72.453125 31.808594 C 70.722656 31.265625 67.753906 31 63.550781 31 L 52 31 L 52 49 L 64.507812 49 C 67.941406 49 70.402344 48.601562 71.894531 48.148438 Z M 117 16.125 C 117 8.324219 110.675781 2 102.871094 2 L 25.128906 2 C 17.324219 2 11 8.324219 11 16.125 L 11 93.875 C 11 101.675781 17.324219 108 25.128906 108 L 102.871094 108 C 110.675781 108 117 101.675781 117 93.875 Z M 86.570312 73.269531 C 85.414062 75.625 83.980469 77.441406 82.277344 78.722656 C 80.574219 79.996094 78.4375 81.167969 75.867188 81.820312 C 73.300781 82.472656 70.152344 83 66.425781 83 L 44 83 L 44 24 L 66.066406 24 C 70.539062 24 74.125 24.621094 76.824219 25.804688 C 79.527344 26.988281 81.644531 28.824219 83.175781 31.285156 C 84.707031 33.75 85.472656 36.332031 85.472656 39.023438 C 85.472656 41.523438 84.792969 43.882812 83.4375 46.09375 C 82.078125 48.304688 80.027344 50.089844 77.285156 51.445312 C 80.828125 52.484375 83.550781 54.257812 85.453125 56.757812 C 87.355469 59.261719 88.308594 62.214844 88.308594 65.625 C 88.308594 68.367188 87.730469 70.914062 86.570312 73.269531 Z M 86.570312 73.269531 "/>
</g>
</svg>
