<?xml version="1.0" encoding="UTF-8"?>
<svg xmlns="http://www.w3.org/2000/svg" xmlns:xlink="http://www.w3.org/1999/xlink" width="128pt" height="128pt" viewBox="0 0 128 128" version="1.1">
<g id="surface1">
<path style=" stroke:none;fill-rule:nonzero;fill:rgb(23.137255%,34.901961%,59.607843%);fill-opacity:1;" d="M 128 64 C 128 99.347656 99.347656 128 64 128 C 28.652344 128 0 99.347656 0 64 C 0 28.652344 28.652344 0 64 0 C 99.347656 0 128 28.652344 128 64 Z M 128 64 "/>
<path style=" stroke:none;fill-rule:nonzero;fill:rgb(100%,100%,100%);fill-opacity:1;" d="M 80.089844 66.503906 L 68.667969 66.503906 L 68.667969 108.34375 L 51.367188 108.34375 L 51.367188 66.503906 L 43.136719 66.503906 L 43.136719 51.800781 L 51.367188 51.800781 L 51.367188 42.289062 C 51.367188 35.484375 54.597656 24.828125 68.824219 24.828125 L 81.640625 24.882812 L 81.640625 39.15625 L 72.339844 39.15625 C 70.816406 39.15625 68.671875 39.917969 68.671875 43.164062 L 68.671875 51.816406 L 81.601562 51.816406 Z M 80.089844 66.503906 "/>
</g>
</svg>
