<svg xmlns="http://www.w3.org/2000/svg" viewBox="0 0 512 512"><defs><style>.cls-1{fill:#fff8f8;}</style></defs><title>Prancheta 1</title><g id="Camada_2" data-name="Camada 2"><polygon class="cls-1" points="238.9 109.3 103.23 88.83 60.03 240.41 64.58 392.75 163.86 492.03 179.26 512 332.57 512 383.65 458.68 448.83 195.69 360.16 72.92 238.9 109.3"/></g><g id="Bold"><path d="M256,1.42C114.54,1.42,0,118.63,0,263.19,0,378.87,73.33,477,175,511.55c12.8,2.46,17.49-5.64,17.49-12.59,0-6.21-.21-22.69-.32-44.51C121,470.24,106,419.33,106,419.33,94.32,389.12,77.49,381,77.49,381c-23.18-16.23,1.79-15.89,1.79-15.89,25.71,1.82,39.21,27,39.21,27,22.82,40,59.92,28.46,74.55,21.78,2.3-16.94,8.89-28.46,16.21-35C152.4,372.34,92.66,349.83,92.66,249.54c0-28.57,9.92-51.93,26.34-70.24-2.88-6.62-11.52-33.23,2.24-69.28,0,0,21.44-7,70.39,26.84a236,236,0,0,1,128,0C368.24,103,389.68,110,389.68,110c13.76,36.05,5.12,62.66,2.56,69.28,16.32,18.31,26.24,41.67,26.24,70.24,0,100.56-59.84,122.69-116.79,129.13,9,7.86,17.28,23.9,17.28,48.43,0,35-.32,63.18-.32,71.68,0,6.86,4.48,15.05,17.6,12.44,102.4-34.37,175.67-132.53,175.67-248C511.92,118.63,397.32,1.42,256,1.42Z"/></g></svg>