<?xml version="1.0" encoding="UTF-8"?>
<svg xmlns="http://www.w3.org/2000/svg" xmlns:xlink="http://www.w3.org/1999/xlink" width="128pt" height="128pt" viewBox="0 0 128 128" version="1.1">
<g id="surface1">
<path style=" stroke:none;fill-rule:nonzero;fill:rgb(0%,0%,0%);fill-opacity:1;" d="M 59.726562 27.324219 L 25.808594 22.207031 L 15.007812 60.101562 L 16.144531 98.1875 L 40.964844 123.007812 L 44.816406 128 L 83.140625 128 L 95.914062 114.671875 L 112.207031 48.921875 L 90.039062 18.230469 Z M 59.726562 27.324219 "/>
<path style=" stroke:none;fill-rule:nonzero;fill:rgb(0%,0%,0%);fill-opacity:1;" d="M 64 0.355469 C 28.636719 0.355469 0 29.65625 0 65.796875 C 0 94.71875 18.332031 119.25 43.75 127.886719 C 46.949219 128.503906 48.121094 126.476562 48.121094 124.738281 C 48.121094 123.1875 48.070312 119.066406 48.042969 113.613281 C 30.25 117.558594 26.5 104.832031 26.5 104.832031 C 23.578125 97.28125 19.371094 95.25 19.371094 95.25 C 13.578125 91.191406 19.820312 91.277344 19.820312 91.277344 C 26.246094 91.734375 29.621094 98.027344 29.621094 98.027344 C 35.328125 108.027344 44.601562 105.140625 48.261719 103.472656 C 48.835938 99.238281 50.484375 96.359375 52.3125 94.722656 C 38.101562 93.085938 23.164062 87.457031 23.164062 62.386719 C 23.164062 55.242188 25.644531 49.402344 29.75 44.824219 C 29.03125 43.171875 26.871094 36.515625 30.308594 27.503906 C 30.308594 27.503906 35.671875 25.753906 47.90625 34.214844 C 58.371094 31.265625 69.445312 31.265625 79.90625 34.214844 C 92.058594 25.75 97.421875 27.5 97.421875 27.5 C 100.859375 36.511719 98.699219 43.164062 98.058594 44.820312 C 102.140625 49.398438 104.621094 55.238281 104.621094 62.378906 C 104.621094 87.519531 89.660156 93.050781 75.421875 94.664062 C 77.671875 96.628906 79.742188 100.636719 79.742188 106.769531 C 79.742188 115.519531 79.664062 122.566406 79.664062 124.691406 C 79.664062 126.40625 80.78125 128.453125 84.0625 127.800781 C 109.664062 119.207031 127.980469 94.667969 127.980469 65.800781 C 127.980469 29.65625 99.328125 0.355469 64 0.355469 Z M 64 0.355469 "/>
</g>
</svg>
