<?xml version="1.0" encoding="UTF-8"?>
<svg xmlns="http://www.w3.org/2000/svg" xmlns:xlink="http://www.w3.org/1999/xlink" width="128pt" height="128pt" viewBox="0 0 128 128" version="1.1">
<g id="surface1">
<path style=" stroke:none;fill-rule:nonzero;fill:rgb(100%,100%,100%);fill-opacity:1;" d="M 105.574219 119.476562 C 105.574219 121.375 104.023438 122.925781 102.125 122.925781 L 25.875 122.925781 C 23.976562 122.925781 22.425781 121.375 22.425781 119.476562 L 22.425781 8.523438 C 22.425781 6.625 23.976562 5.074219 25.875 5.074219 L 83.398438 5.074219 L 83.398438 27.25 L 105.574219 27.25 Z M 105.574219 119.476562 "/>
<path style=" stroke:none;fill-rule:nonzero;fill:rgb(16.862745%,40%,62.352941%);fill-opacity:1;" d="M 83.398438 1.5 L 25.875 1.5 C 22 1.5 18.851562 4.648438 18.851562 8.523438 L 18.851562 119.476562 C 18.851562 123.351562 22 126.5 25.875 126.5 L 102.125 126.5 C 106 126.5 109.148438 123.351562 109.148438 119.476562 L 109.148438 27.273438 Z M 105.574219 119.476562 C 105.574219 121.375 104.023438 122.925781 102.125 122.925781 L 25.875 122.925781 C 23.976562 122.925781 22.425781 121.375 22.425781 119.476562 L 22.425781 8.523438 C 22.425781 6.625 23.976562 5.074219 25.875 5.074219 L 83.398438 5.074219 L 83.398438 27.25 L 105.574219 27.25 Z M 105.574219 119.476562 "/>
<path style=" stroke:none;fill-rule:nonzero;fill:rgb(3.137255%,25.882353%,44.705882%);fill-opacity:1;" d="M 83.398438 1.5 L 83.398438 27.273438 L 109.148438 27.273438 Z M 83.398438 1.5 "/>
<path style=" stroke:none;fill-rule:nonzero;fill:rgb(3.137255%,25.882353%,44.705882%);fill-opacity:1;" d="M 116.476562 112.699219 L 11.523438 112.699219 L 11.523438 77 C 11.523438 74.550781 13.5 72.574219 15.949219 72.574219 L 112.023438 72.574219 C 114.476562 72.574219 116.449219 74.550781 116.449219 77 L 116.449219 112.699219 Z M 116.476562 112.699219 "/>
<path style=" stroke:none;fill-rule:nonzero;fill:rgb(10.196078%,14.509804%,17.647059%);fill-opacity:1;" d="M 109.148438 112.699219 L 109.148438 117.574219 L 116.476562 112.699219 Z M 109.148438 112.699219 "/>
<path style=" stroke:none;fill-rule:nonzero;fill:rgb(10.196078%,14.509804%,17.647059%);fill-opacity:1;" d="M 18.851562 112.699219 L 18.851562 117.574219 L 11.523438 112.699219 Z M 18.851562 112.699219 "/>
<path style=" stroke:none;fill-rule:nonzero;fill:rgb(16.862745%,40%,62.352941%);fill-opacity:1;" d="M 16.023438 77.101562 L 111.949219 77.101562 L 111.949219 108.226562 L 16.023438 108.226562 Z M 16.023438 77.101562 "/>
<path style=" stroke:none;fill-rule:nonzero;fill:rgb(16.862745%,40%,62.352941%);fill-opacity:1;" d="M 74.574219 19.648438 L 30.324219 19.648438 C 29.398438 19.648438 28.648438 18.898438 28.648438 17.976562 C 28.648438 17.050781 29.398438 16.300781 30.324219 16.300781 L 74.574219 16.300781 C 75.5 16.300781 76.25 17.050781 76.25 17.976562 C 76.25 18.898438 75.5 19.648438 74.574219 19.648438 Z M 74.574219 19.648438 "/>
<path style=" stroke:none;fill-rule:nonzero;fill:rgb(16.862745%,40%,62.352941%);fill-opacity:1;" d="M 74.574219 27.648438 L 30.324219 27.648438 C 29.398438 27.648438 28.648438 26.898438 28.648438 25.976562 C 28.648438 25.050781 29.398438 24.300781 30.324219 24.300781 L 74.574219 24.300781 C 75.5 24.300781 76.25 25.050781 76.25 25.976562 C 76.25 26.898438 75.5 27.648438 74.574219 27.648438 Z M 74.574219 27.648438 "/>
<path style=" stroke:none;fill-rule:nonzero;fill:rgb(16.862745%,40%,62.352941%);fill-opacity:1;" d="M 97.949219 35.625 L 30.324219 35.625 C 29.398438 35.625 28.648438 34.875 28.648438 33.949219 C 28.648438 33.023438 29.398438 32.273438 30.324219 32.273438 L 97.949219 32.273438 C 98.875 32.273438 99.625 33.023438 99.625 33.949219 C 99.625 34.875 98.875 35.625 97.949219 35.625 Z M 97.949219 35.625 "/>
<path style=" stroke:none;fill-rule:nonzero;fill:rgb(16.862745%,40%,62.352941%);fill-opacity:1;" d="M 97.949219 43.625 L 30.324219 43.625 C 29.398438 43.625 28.648438 42.875 28.648438 41.949219 C 28.648438 41.023438 29.398438 40.273438 30.324219 40.273438 L 97.949219 40.273438 C 98.875 40.273438 99.625 41.023438 99.625 41.949219 C 99.625 42.875 98.875 43.625 97.949219 43.625 Z M 97.949219 43.625 "/>
<path style=" stroke:none;fill-rule:nonzero;fill:rgb(16.862745%,40%,62.352941%);fill-opacity:1;" d="M 97.949219 51.625 L 30.324219 51.625 C 29.398438 51.625 28.648438 50.875 28.648438 49.949219 C 28.648438 49.023438 29.398438 48.273438 30.324219 48.273438 L 97.949219 48.273438 C 98.875 48.273438 99.625 49.023438 99.625 49.949219 C 99.625 50.875 98.875 51.625 97.949219 51.625 Z M 97.949219 51.625 "/>
<path style=" stroke:none;fill-rule:nonzero;fill:rgb(16.862745%,40%,62.352941%);fill-opacity:1;" d="M 97.949219 59.601562 L 30.324219 59.601562 C 29.398438 59.601562 28.648438 58.851562 28.648438 57.925781 C 28.648438 57 29.398438 56.25 30.324219 56.25 L 97.949219 56.25 C 98.875 56.25 99.625 57 99.625 57.925781 C 99.625 58.851562 98.875 59.601562 97.949219 59.601562 Z M 97.949219 59.601562 "/>
<path style=" stroke:none;fill-rule:nonzero;fill:rgb(16.862745%,40%,62.352941%);fill-opacity:1;" d="M 97.949219 67.601562 L 30.324219 67.601562 C 29.398438 67.601562 28.648438 66.851562 28.648438 65.925781 C 28.648438 65 29.398438 64.25 30.324219 64.25 L 97.949219 64.25 C 98.875 64.25 99.625 65 99.625 65.925781 C 99.625 66.851562 98.875 67.601562 97.949219 67.601562 Z M 97.949219 67.601562 "/>
<path style=" stroke:none;fill-rule:nonzero;fill:rgb(100%,100%,100%);fill-opacity:1;" d="M 47.898438 87.425781 L 47.898438 98.398438 C 47.898438 99.75 47.550781 100.800781 46.824219 101.523438 C 46.101562 102.25 45.101562 102.625 43.800781 102.625 C 43.5 102.625 43.25 102.601562 43 102.574219 C 42.75 102.550781 42.5 102.5 42.226562 102.449219 L 42.375 99.898438 C 42.574219 99.949219 42.726562 99.976562 42.875 100 C 43.023438 100.023438 43.175781 100.023438 43.398438 100.023438 C 43.773438 100.023438 44.050781 99.898438 44.25 99.625 C 44.449219 99.351562 44.550781 98.949219 44.550781 98.425781 L 44.550781 87.449219 L 47.898438 87.449219 Z M 47.824219 84.925781 L 44.425781 84.925781 L 44.425781 82.648438 L 47.824219 82.648438 Z M 47.824219 84.925781 "/>
<path style=" stroke:none;fill-rule:nonzero;fill:rgb(100%,100%,100%);fill-opacity:1;" d="M 56.875 95.226562 C 56.875 94.949219 56.726562 94.726562 56.425781 94.5 C 56.125 94.300781 55.574219 94.101562 54.773438 93.925781 C 53.523438 93.675781 52.550781 93.300781 51.925781 92.773438 C 51.273438 92.25 50.976562 91.550781 50.976562 90.625 C 50.976562 89.675781 51.375 88.851562 52.175781 88.199219 C 52.976562 87.523438 54.050781 87.199219 55.425781 87.199219 C 56.875 87.199219 58.023438 87.523438 58.875 88.175781 C 59.726562 88.824219 60.125 89.648438 60.101562 90.675781 L 60.074219 90.726562 L 56.800781 90.726562 C 56.800781 90.300781 56.699219 89.976562 56.476562 89.75 C 56.25 89.523438 55.898438 89.425781 55.425781 89.425781 C 55.074219 89.425781 54.773438 89.523438 54.523438 89.726562 C 54.273438 89.925781 54.175781 90.175781 54.175781 90.476562 C 54.175781 90.75 54.324219 91 54.601562 91.199219 C 54.875 91.398438 55.425781 91.574219 56.273438 91.75 C 57.601562 92 58.574219 92.398438 59.226562 92.925781 C 59.851562 93.449219 60.175781 94.175781 60.175781 95.125 C 60.175781 96.101562 59.75 96.898438 58.875 97.523438 C 58 98.148438 56.875 98.476562 55.449219 98.476562 C 53.976562 98.476562 52.800781 98.101562 51.949219 97.351562 C 51.101562 96.601562 50.675781 95.773438 50.726562 94.851562 L 50.75 94.800781 L 53.824219 94.800781 C 53.851562 95.324219 54 95.675781 54.300781 95.898438 C 54.601562 96.125 55.023438 96.25 55.574219 96.25 C 56.023438 96.25 56.375 96.148438 56.601562 95.976562 C 56.75 95.800781 56.875 95.550781 56.875 95.226562 Z M 56.875 95.226562 "/>
<path style=" stroke:none;fill-rule:nonzero;fill:rgb(100%,100%,100%);fill-opacity:1;" d="M 62.699219 92.75 C 62.699219 91.125 63.148438 89.800781 64.074219 88.773438 C 65 87.75 66.273438 87.25 67.925781 87.25 C 69.574219 87.25 70.875 87.75 71.800781 88.773438 C 72.726562 89.800781 73.175781 91.125 73.175781 92.75 L 73.175781 92.949219 C 73.175781 94.574219 72.726562 95.925781 71.800781 96.925781 C 70.875 97.949219 69.601562 98.449219 67.949219 98.449219 C 66.300781 98.449219 65 97.949219 64.074219 96.925781 C 63.148438 95.898438 62.699219 94.574219 62.699219 92.949219 Z M 66.101562 92.976562 C 66.101562 93.875 66.25 94.601562 66.523438 95.125 C 66.800781 95.648438 67.300781 95.898438 67.976562 95.898438 C 68.625 95.898438 69.101562 95.648438 69.398438 95.125 C 69.675781 94.601562 69.824219 93.898438 69.824219 93 L 69.824219 92.75 C 69.824219 91.875 69.675781 91.175781 69.398438 90.625 C 69.125 90.101562 68.625 89.824219 67.949219 89.824219 C 67.273438 89.824219 66.800781 90.101562 66.523438 90.625 C 66.25 91.148438 66.101562 91.875 66.101562 92.75 Z M 66.101562 92.976562 "/>
<path style=" stroke:none;fill-rule:nonzero;fill:rgb(100%,100%,100%);fill-opacity:1;" d="M 79.25 87.425781 L 79.375 88.949219 C 79.726562 88.398438 80.175781 87.976562 80.675781 87.675781 C 81.199219 87.375 81.773438 87.226562 82.425781 87.226562 C 83.476562 87.226562 84.324219 87.574219 84.925781 88.300781 C 85.523438 89.023438 85.824219 90.175781 85.824219 91.726562 L 85.824219 98.25 L 82.449219 98.25 L 82.449219 91.75 C 82.449219 91.050781 82.351562 90.574219 82.125 90.273438 C 81.898438 89.976562 81.574219 89.851562 81.175781 89.851562 C 80.824219 89.851562 80.5 89.925781 80.199219 90.050781 C 79.925781 90.175781 79.675781 90.351562 79.476562 90.601562 L 79.476562 98.300781 L 76.101562 98.300781 L 76.101562 87.476562 L 79.25 87.476562 Z M 79.25 87.425781 "/>
</g>
</svg>
