<?xml version="1.0" encoding="UTF-8"?>
<svg xmlns="http://www.w3.org/2000/svg" xmlns:xlink="http://www.w3.org/1999/xlink" width="128pt" height="128pt" viewBox="0 0 128 128" version="1.1">
<g id="surface1">
<rect x="0" y="0" width="128" height="128" style="fill:rgb(100%,100%,100%);fill-opacity:1;stroke:none;"/>
<path style=" stroke:none;fill-rule:evenodd;fill:rgb(0%,40.392157%,54.901961%);fill-opacity:1;" d="M 5.648438 85.148438 L 9.527344 85.148438 L 9.527344 69.859375 L 15.511719 83.195312 C 16.222656 84.792969 17.171875 85.355469 19.070312 85.355469 C 20.964844 85.355469 21.914062 84.792969 22.625 83.195312 L 28.609375 69.859375 L 28.609375 85.148438 L 32.460938 85.148438 L 32.460938 69.890625 C 32.460938 68.410156 31.867188 67.695312 30.652344 67.3125 C 27.71875 66.394531 25.734375 67.195312 24.847656 69.179688 L 18.980469 82.304688 L 13.292969 69.179688 C 12.433594 67.195312 10.417969 66.394531 7.484375 67.3125 C 6.238281 67.695312 5.648438 68.410156 5.648438 69.890625 Z M 35.691406 72.703125 L 39.542969 72.703125 L 39.542969 81.121094 C 39.511719 81.59375 39.691406 82.660156 41.824219 82.691406 C 42.890625 82.71875 50.148438 82.691406 50.207031 82.691406 L 50.207031 72.675781 L 54.089844 72.675781 C 54.117188 72.675781 54.089844 86.332031 54.089844 86.390625 C 54.117188 89.769531 49.910156 90.480469 47.984375 90.539062 L 35.777344 90.539062 L 35.777344 87.933594 C 35.777344 87.933594 47.957031 87.964844 47.984375 87.933594 C 50.472656 87.695312 50.179688 86.453125 50.179688 86.039062 L 50.179688 85.027344 L 41.972656 85.027344 C 38.148438 84.972656 35.71875 83.3125 35.691406 81.386719 C 35.691406 81.207031 35.777344 72.792969 35.691406 72.703125 Z M 118.914062 63.015625 C 116.546875 62.957031 114.738281 63.164062 113.167969 63.84375 C 112.722656 64.023438 112.042969 64.023438 111.953125 64.585938 C 112.191406 64.820312 112.25 65.207031 112.425781 65.535156 C 112.8125 66.128906 113.433594 66.925781 113.996094 67.339844 C 114.589844 67.816406 115.214844 68.289062 115.863281 68.703125 C 117.050781 69.414062 118.351562 69.800781 119.449219 70.511719 C 120.132812 70.925781 120.78125 71.460938 121.433594 71.933594 C 121.730469 72.171875 121.96875 72.527344 122.351562 72.675781 L 122.351562 72.617188 C 122.144531 72.351562 122.085938 71.964844 121.90625 71.667969 L 121.019531 70.777344 C 120.160156 69.652344 119.0625 68.644531 117.90625 67.816406 C 116.988281 67.164062 114.914062 66.246094 114.53125 65.179688 C 114.5 65.148438 114.46875 65.148438 114.46875 65.121094 C 115.121094 65.03125 115.894531 64.792969 116.484375 64.644531 C 117.492188 64.378906 118.410156 64.4375 119.449219 64.171875 C 119.921875 64.023438 120.398438 63.90625 120.871094 63.757812 L 120.871094 63.488281 C 120.339844 62.957031 119.984375 62.214844 119.390625 61.742188 C 117.878906 60.4375 116.21875 59.164062 114.53125 58.097656 C 113.582031 57.476562 112.425781 57.089844 111.421875 56.585938 C 111.09375 56.4375 110.5 56.347656 110.265625 56.054688 C 109.730469 55.402344 109.464844 54.542969 109.050781 53.773438 C 108.179688 52.082031 107.371094 50.363281 106.621094 48.617188 C 106.117188 47.460938 105.761719 46.304688 105.140625 45.238281 C 102.058594 40.199219 98.769531 37.148438 93.644531 34.15625 C 92.546875 33.535156 91.246094 33.269531 89.851562 32.941406 C 89.109375 32.882812 88.371094 32.851562 87.628906 32.792969 C 87.183594 32.617188 86.710938 32.054688 86.265625 31.785156 C 84.578125 30.71875 80.222656 28.378906 78.976562 31.460938 C 78.175781 33.386719 80.164062 35.28125 80.871094 36.261719 C 81.378906 36.941406 82 37.710938 82.355469 38.484375 C 82.589844 38.984375 82.621094 39.488281 82.828125 40.023438 C 83.332031 41.355469 83.746094 42.808594 84.367188 44.023438 C 84.695312 44.644531 85.050781 45.296875 85.464844 45.859375 C 85.703125 46.1875 86.148438 46.335938 86.207031 46.867188 C 85.789062 47.460938 85.761719 48.347656 85.523438 49.089844 C 84.488281 52.4375 84.871094 56.554688 86.414062 59.042969 C 86.886719 59.785156 87.984375 61.414062 89.523438 60.792969 C 90.859375 60.230469 90.5625 58.570312 90.945312 57.058594 C 91.035156 56.734375 90.976562 56.496094 91.152344 56.257812 L 91.152344 56.316406 C 91.539062 57.148438 91.953125 57.949219 92.367188 58.746094 C 93.257812 60.199219 94.859375 61.738281 96.222656 62.746094 C 96.902344 63.28125 97.464844 64.199219 98.382812 64.496094 L 98.382812 64.433594 L 98.296875 64.433594 C 98.117188 64.167969 97.851562 64.050781 97.644531 63.84375 C 97.109375 63.308594 96.515625 62.65625 96.074219 62.066406 C 94.859375 60.40625 93.761719 58.570312 92.753906 56.671875 C 92.28125 55.753906 91.863281 54.746094 91.480469 53.828125 C 91.332031 53.472656 91.332031 52.941406 91.007812 52.730469 C 90.5625 53.414062 89.941406 53.976562 89.582031 54.777344 C 89.050781 56.050781 88.960938 57.621094 88.785156 59.222656 C 88.664062 59.28125 88.695312 59.25 88.636719 59.308594 C 87.6875 59.074219 87.363281 58.09375 87.007812 57.265625 C 86.148438 55.160156 85.96875 51.785156 86.738281 49.355469 C 86.945312 48.730469 87.867188 46.777344 87.480469 46.183594 C 87.300781 45.621094 86.738281 45.265625 86.414062 44.820312 C 86 44.289062 85.613281 43.578125 85.316406 42.953125 C 84.609375 41.296875 84.28125 39.457031 83.511719 37.800781 C 83.125 37 82.53125 36.199219 82.027344 35.519531 C 81.464844 34.71875 80.84375 34.15625 80.398438 33.207031 C 80.253906 32.882812 80.042969 32.347656 80.253906 31.992188 C 80.339844 31.753906 80.429688 31.664062 80.664062 31.578125 C 81.050781 31.28125 82.148438 31.695312 82.5625 31.84375 C 83.628906 32.316406 84.546875 32.734375 85.464844 33.355469 C 85.910156 33.652344 86.355469 34.214844 86.886719 34.363281 L 87.480469 34.363281 C 88.429688 34.570312 89.496094 34.421875 90.382812 34.6875 C 91.953125 35.160156 93.375 35.902344 94.652344 36.734375 C 98.5625 39.191406 101.734375 42.6875 103.925781 46.867188 C 104.28125 47.546875 104.429688 48.167969 104.726562 48.878906 C 105.347656 50.332031 106.148438 51.8125 106.769531 53.207031 C 107.363281 54.628906 107.984375 56.050781 108.84375 57.207031 C 109.316406 57.828125 111.09375 58.152344 111.894531 58.480469 C 112.457031 58.714844 113.375 58.984375 113.910156 59.308594 C 114.945312 59.902344 115.925781 60.640625 116.902344 61.324219 C 117.375 61.652344 118.855469 62.394531 118.914062 63.015625 Z M 118.914062 63.015625 "/>
<path style=" stroke:none;fill-rule:evenodd;fill:rgb(0%,40.392157%,54.901961%);fill-opacity:1;" d="M 88.695312 37.269531 C 88.285156 37.269531 87.878906 37.320312 87.480469 37.417969 L 87.480469 37.476562 L 87.570312 37.476562 C 87.804688 37.953125 88.222656 38.277344 88.515625 38.691406 C 88.726562 39.164062 88.960938 39.640625 89.167969 40.113281 L 89.257812 40.023438 C 89.671875 39.757812 89.851562 39.285156 89.851562 38.542969 C 89.703125 38.367188 89.671875 38.160156 89.527344 37.953125 C 89.316406 37.65625 88.960938 37.507812 88.695312 37.269531 Z M 88.695312 37.269531 "/>
<path style=" stroke:none;fill-rule:evenodd;fill:rgb(80.784314%,54.509804%,17.254902%);fill-opacity:1;" d="M 57.082031 85.148438 L 68.191406 85.148438 C 69.496094 85.148438 70.769531 84.882812 71.777344 84.40625 C 73.433594 83.640625 74.265625 82.601562 74.265625 81.238281 L 74.265625 78.394531 C 74.265625 77.296875 73.316406 76.230469 71.511719 75.550781 C 70.53125 75.164062 69.347656 74.988281 68.191406 74.988281 L 63.511719 74.988281 C 61.941406 74.988281 61.199219 74.511719 61.023438 73.476562 C 60.992188 73.359375 60.992188 73.238281 60.992188 73.121094 L 60.992188 71.371094 C 60.992188 71.253906 60.992188 71.164062 61.023438 71.046875 C 61.199219 70.246094 61.613281 70.007812 62.976562 69.890625 C 63.097656 69.890625 63.246094 69.863281 63.363281 69.863281 L 74.414062 69.863281 L 74.414062 67.285156 L 63.542969 67.285156 C 61.96875 67.285156 61.171875 67.402344 60.429688 67.609375 C 58.121094 68.351562 57.113281 69.476562 57.113281 71.460938 L 57.113281 73.714844 C 57.113281 75.460938 59.097656 76.941406 62.386719 77.296875 C 62.769531 77.296875 63.125 77.328125 63.511719 77.328125 L 67.511719 77.328125 C 67.660156 77.328125 67.808594 77.328125 67.925781 77.359375 C 69.171875 77.476562 69.671875 77.683594 70.058594 78.128906 C 70.265625 78.363281 70.355469 78.570312 70.355469 78.839844 L 70.355469 81.089844 C 70.355469 81.359375 70.175781 81.714844 69.792969 82.007812 C 69.464844 82.304688 68.902344 82.484375 68.164062 82.542969 C 68.015625 82.542969 67.898438 82.570312 67.746094 82.570312 L 57.082031 82.570312 Z M 98.382812 80.644531 C 98.382812 83.3125 100.339844 84.792969 104.339844 85.089844 C 104.695312 85.117188 105.078125 85.148438 105.433594 85.148438 L 115.507812 85.148438 L 115.507812 82.570312 L 105.375 82.570312 C 103.09375 82.570312 102.234375 82.007812 102.234375 80.644531 L 102.234375 67.28125 L 98.382812 67.28125 Z M 76.726562 80.792969 L 76.726562 71.609375 C 76.726562 69.269531 78.355469 67.847656 81.613281 67.402344 C 81.941406 67.339844 82.324219 67.339844 82.652344 67.339844 L 89.996094 67.339844 C 90.351562 67.339844 90.679688 67.339844 91.066406 67.402344 C 94.292969 67.847656 95.953125 69.269531 95.953125 71.609375 L 95.953125 80.792969 C 95.953125 82.691406 95.242188 83.695312 93.640625 84.347656 L 97.464844 87.785156 L 92.960938 87.785156 L 89.878906 85.03125 L 86.769531 85.207031 L 82.648438 85.207031 C 81.9375 85.207031 81.199219 85.121094 80.367188 84.882812 C 77.910156 84.230469 76.726562 82.925781 76.726562 80.792969 Z M 80.902344 80.558594 C 80.902344 80.703125 80.933594 80.824219 80.960938 80.972656 C 81.199219 82.039062 82.207031 82.628906 83.71875 82.628906 L 87.242188 82.628906 L 84.015625 79.726562 L 88.515625 79.726562 L 91.332031 82.246094 C 91.835938 81.980469 92.191406 81.5625 92.308594 81.03125 C 92.339844 80.882812 92.339844 80.765625 92.339844 80.644531 L 92.339844 71.816406 C 92.339844 71.726562 92.339844 71.609375 92.308594 71.488281 C 92.074219 70.484375 91.066406 69.921875 89.582031 69.921875 L 83.71875 69.921875 C 82 69.921875 80.902344 70.660156 80.902344 71.816406 Z M 117.285156 85.148438 L 117.851562 85.148438 L 117.851562 83.015625 L 118.621094 83.015625 L 118.621094 82.570312 L 116.515625 82.570312 L 116.515625 83.015625 L 117.285156 83.015625 Z M 121.613281 85.148438 L 122.117188 85.148438 L 122.117188 82.570312 L 121.34375 82.570312 L 120.664062 84.347656 L 119.984375 82.570312 L 119.183594 82.570312 L 119.183594 85.148438 L 119.71875 85.148438 L 119.71875 83.195312 L 120.457031 85.148438 L 120.84375 85.148438 L 121.582031 83.195312 L 121.613281 83.195312 Z M 121.613281 85.148438 "/>
<path style=" stroke:none;fill-rule:evenodd;fill:rgb(0%,40.392157%,54.901961%);fill-opacity:1;" d="M 7.988281 61.179688 L 5.824219 51.164062 L 6.921875 51.164062 L 8.164062 57.742188 C 8.3125 58.421875 8.433594 59.105469 8.519531 59.785156 L 8.90625 57.917969 L 10.476562 51.164062 L 11.75 51.164062 L 12.9375 56.230469 C 13.230469 57.476562 13.4375 58.660156 13.585938 59.785156 C 13.675781 59.132812 13.824219 58.394531 14.003906 57.59375 L 15.277344 51.164062 L 16.402344 51.164062 L 14.121094 61.179688 L 13.082031 61.179688 L 11.335938 53.5625 L 11.070312 52.378906 C 11.011719 52.824219 10.921875 53.210938 10.832031 53.5625 L 9.082031 61.179688 Z M 17.085938 56.320312 C 17.085938 54.601562 17.46875 53.296875 18.210938 52.378906 C 18.949219 51.460938 19.898438 51.015625 21.023438 51.015625 C 21.734375 51.015625 22.417969 51.195312 23.007812 51.609375 C 23.601562 52.023438 24.074219 52.617188 24.433594 53.386719 C 24.757812 54.1875 24.9375 55.105469 24.9375 56.199219 C 24.9375 57.683594 24.609375 58.867188 23.929688 59.816406 C 23.1875 60.851562 22.210938 61.355469 21.023438 61.355469 C 19.808594 61.355469 18.832031 60.824219 18.089844 59.785156 C 17.410156 58.808594 17.085938 57.652344 17.085938 56.320312 Z M 18.210938 56.320312 C 18.210938 57.566406 18.476562 58.511719 19.011719 59.195312 C 19.574219 59.875 20.222656 60.230469 20.996094 60.230469 C 21.792969 60.230469 22.476562 59.875 23.007812 59.195312 C 23.542969 58.511719 23.808594 57.503906 23.808594 56.171875 C 23.808594 55.285156 23.691406 54.542969 23.394531 53.863281 C 23.1875 53.328125 22.859375 52.914062 22.445312 52.617188 C 22.035156 52.308594 21.539062 52.140625 21.023438 52.144531 C 20.195312 52.144531 19.511719 52.46875 19.007812 53.152344 C 18.476562 53.832031 18.210938 54.898438 18.210938 56.320312 Z M 26.296875 61.179688 L 26.296875 51.164062 L 29.941406 51.164062 C 30.683594 51.164062 31.246094 51.253906 31.601562 51.460938 C 31.988281 51.640625 32.28125 51.933594 32.488281 52.378906 C 32.726562 52.824219 32.847656 53.328125 32.847656 53.890625 C 32.847656 54.660156 32.667969 55.253906 32.253906 55.726562 C 31.867188 56.203125 31.304688 56.496094 30.535156 56.644531 C 30.859375 56.824219 31.066406 57 31.246094 57.179688 C 31.574219 57.5625 31.839844 57.980469 32.105469 58.453125 L 33.527344 61.179688 L 32.164062 61.179688 L 31.066406 59.105469 C 30.625 58.304688 30.328125 57.742188 30.089844 57.472656 C 29.882812 57.179688 29.675781 56.96875 29.46875 56.882812 C 29.261719 56.792969 28.996094 56.734375 28.640625 56.734375 L 27.394531 56.734375 L 27.394531 61.179688 Z M 27.394531 55.578125 L 29.703125 55.578125 C 30.207031 55.578125 30.59375 55.519531 30.859375 55.402344 C 31.125 55.28125 31.332031 55.074219 31.511719 54.839844 C 31.660156 54.570312 31.71875 54.246094 31.71875 53.890625 C 31.71875 53.386719 31.570312 53 31.273438 52.707031 C 30.980469 52.410156 30.5625 52.261719 29.972656 52.261719 L 27.394531 52.261719 Z M 34.535156 61.179688 L 34.535156 51.164062 L 35.632812 51.164062 L 35.632812 56.140625 L 39.691406 51.164062 L 41.171875 51.164062 L 37.703125 55.222656 L 41.320312 61.179688 L 39.867188 61.179688 L 36.964844 56.140625 L 35.632812 57.710938 L 35.632812 61.179688 Z M 41.824219 57.949219 L 42.859375 57.859375 C 42.917969 58.394531 43.039062 58.839844 43.246094 59.132812 C 43.421875 59.460938 43.71875 59.699219 44.074219 59.875 C 44.429688 60.082031 44.84375 60.171875 45.289062 60.171875 C 45.941406 60.171875 46.414062 59.992188 46.773438 59.699219 C 47.128906 59.371094 47.304688 58.957031 47.304688 58.453125 C 47.304688 58.15625 47.246094 57.921875 47.128906 57.683594 C 47.007812 57.476562 46.800781 57.296875 46.535156 57.148438 C 46.269531 57 45.703125 56.792969 44.84375 56.558594 C 44.074219 56.320312 43.511719 56.082031 43.1875 55.847656 C 42.855469 55.632812 42.589844 55.335938 42.414062 54.988281 C 42.238281 54.632812 42.148438 54.214844 42.148438 53.773438 C 42.148438 52.941406 42.414062 52.289062 42.917969 51.785156 C 43.453125 51.253906 44.164062 51.015625 45.050781 51.015625 C 45.644531 51.015625 46.175781 51.132812 46.652344 51.371094 C 47.097656 51.609375 47.453125 51.964844 47.71875 52.410156 C 47.976562 52.902344 48.109375 53.453125 48.101562 54.007812 L 47.066406 54.097656 C 47.035156 53.445312 46.828125 52.972656 46.503906 52.644531 C 46.148438 52.320312 45.703125 52.171875 45.082031 52.171875 C 44.457031 52.171875 43.984375 52.320312 43.6875 52.585938 C 43.363281 52.84375 43.175781 53.238281 43.183594 53.652344 C 43.183594 54.070312 43.304688 54.363281 43.539062 54.601562 C 43.777344 54.808594 44.3125 55.046875 45.140625 55.28125 C 45.96875 55.488281 46.53125 55.699219 46.859375 55.847656 C 47.363281 56.113281 47.746094 56.4375 47.984375 56.851562 C 48.25 57.269531 48.371094 57.773438 48.371094 58.335938 C 48.375 58.886719 48.230469 59.425781 47.953125 59.90625 C 47.6875 60.378906 47.332031 60.734375 46.859375 60.972656 C 46.414062 61.238281 45.851562 61.355469 45.199219 61.355469 C 44.191406 61.355469 43.363281 61.058594 42.769531 60.4375 C 42.175781 59.816406 41.851562 58.988281 41.824219 57.949219 Z M 54.800781 61.179688 L 52.636719 51.164062 L 53.734375 51.164062 L 54.976562 57.742188 C 55.125 58.421875 55.246094 59.105469 55.335938 59.785156 L 55.71875 57.917969 L 57.289062 51.164062 L 58.5625 51.164062 L 59.75 56.230469 C 60.027344 57.402344 60.246094 58.589844 60.398438 59.785156 C 60.488281 59.132812 60.636719 58.394531 60.785156 57.59375 L 62.089844 51.164062 L 63.214844 51.164062 L 60.933594 61.179688 L 59.894531 61.179688 L 58.148438 53.5625 L 57.882812 52.378906 C 57.824219 52.824219 57.734375 53.210938 57.644531 53.5625 L 55.898438 61.179688 Z M 64.398438 61.179688 L 64.398438 51.164062 L 65.496094 51.164062 L 65.496094 61.179688 Z M 69.496094 61.179688 L 69.496094 52.351562 L 66.800781 52.351562 L 66.800781 51.164062 L 73.289062 51.164062 L 73.289062 52.351562 L 70.5625 52.351562 L 70.5625 61.179688 Z M 74.355469 61.179688 L 74.355469 51.164062 L 75.453125 51.164062 L 75.453125 55.28125 L 79.71875 55.28125 L 79.71875 51.164062 L 80.816406 51.164062 L 80.816406 61.179688 L 79.71875 61.179688 L 79.71875 56.46875 L 75.453125 56.46875 L 75.453125 61.179688 Z M 74.355469 61.179688 "/>
</g>
</svg>
