<?xml version="1.0" encoding="UTF-8"?>
<svg xmlns="http://www.w3.org/2000/svg" xmlns:xlink="http://www.w3.org/1999/xlink" width="128pt" height="128pt" viewBox="0 0 128 128" version="1.1">
<g id="surface1">
<path style=" stroke:none;fill-rule:nonzero;fill:rgb(0%,0%,0%);fill-opacity:1;" d="M 85.988281 76.074219 C 86.621094 70.8125 86.429688 70.039062 90.351562 70.894531 L 91.34375 70.980469 C 94.359375 71.117188 98.300781 70.496094 100.617188 69.421875 C 105.601562 67.105469 108.558594 63.242188 103.644531 64.257812 C 92.429688 66.570312 91.65625 62.773438 91.65625 62.773438 C 103.5 45.203125 108.449219 22.898438 104.179688 17.441406 C 92.523438 2.546875 72.351562 9.589844 72.011719 9.773438 L 71.902344 9.792969 C 69.6875 9.332031 67.210938 9.058594 64.421875 9.015625 C 59.347656 8.929688 55.496094 10.34375 52.574219 12.558594 C 52.574219 12.558594 16.585938 -2.265625 18.261719 31.207031 C 18.617188 38.328125 28.46875 85.089844 40.21875 70.964844 C 44.511719 65.800781 48.660156 61.433594 48.660156 61.433594 C 50.722656 62.800781 53.1875 63.5 55.777344 63.25 L 55.976562 63.078125 C 55.914062 63.71875 55.941406 64.347656 56.058594 65.089844 C 53.03125 68.472656 53.921875 69.066406 47.867188 70.3125 C 41.746094 71.574219 45.34375 73.820312 47.691406 74.40625 C 50.539062 75.117188 57.125 76.128906 61.574219 69.898438 L 61.398438 70.609375 C 62.585938 71.558594 62.503906 77.433594 62.671875 81.632812 C 62.839844 85.832031 63.121094 89.75 63.980469 92.0625 C 64.835938 94.371094 65.84375 100.324219 73.796875 98.621094 C 80.445312 97.195312 85.523438 95.144531 85.988281 76.074219 "/>
<path style=" stroke:none;fill-rule:nonzero;fill:rgb(0%,0%,0%);fill-opacity:1;" d="M 71.207031 102.769531 C 67.691406 102.769531 65.398438 101.410156 64.007812 100.097656 C 61.90625 98.113281 61.074219 95.5625 60.578125 94.035156 L 60.363281 93.398438 C 59.359375 90.695312 59.023438 86.800781 58.820312 81.785156 C 58.789062 81.035156 58.769531 80.257812 58.746094 79.433594 C 58.730469 78.835938 58.707031 78.078125 58.679688 77.289062 C 57.429688 77.886719 56.089844 78.3125 54.679688 78.554688 C 52.199219 78.976562 49.535156 78.839844 46.753906 78.144531 C 44.792969 77.652344 42.757812 76.636719 41.59375 75.066406 C 38.210938 78.03125 34.980469 77.628906 33.222656 77.042969 C 30.117188 76.007812 27.34375 73.101562 24.730469 68.152344 C 22.871094 64.632812 21.074219 60.039062 19.382812 54.507812 C 16.445312 44.875 14.574219 34.730469 14.410156 31.398438 C 13.886719 20.972656 16.695312 13.515625 22.75 9.238281 C 32.304688 2.488281 46.78125 6.457031 52.058594 8.261719 C 55.601562 6.121094 59.773438 5.082031 64.488281 5.15625 C 67.019531 5.199219 69.429688 5.421875 71.667969 5.820312 C 74.003906 5.085938 78.617188 4.03125 83.898438 4.097656 C 93.628906 4.214844 101.691406 8.003906 107.214844 15.0625 C 111.15625 20.097656 109.207031 30.671875 107.695312 36.527344 C 105.566406 44.765625 101.839844 53.523438 97.257812 61.152344 C 98.503906 61.160156 100.304688 61.011719 102.863281 60.480469 C 107.917969 59.4375 109.394531 62.148438 109.796875 63.359375 C 111.402344 68.226562 104.417969 71.90625 102.238281 72.914062 C 99.449219 74.214844 94.898438 75.003906 91.167969 74.832031 L 91.007812 74.820312 L 90.027344 74.734375 L 89.929688 75.550781 L 89.835938 76.347656 C 89.585938 86.011719 88.207031 92.132812 85.363281 96.179688 C 82.386719 100.417969 78.25 101.605469 74.605469 102.386719 C 73.363281 102.652344 72.234375 102.769531 71.207031 102.769531 Z M 63.804688 67.597656 C 66.078125 69.414062 66.277344 72.832031 66.453125 79.222656 C 66.476562 80.019531 66.496094 80.773438 66.523438 81.480469 C 66.609375 83.613281 66.8125 88.609375 67.59375 90.722656 C 67.703125 91.019531 67.804688 91.324219 67.90625 91.644531 C 68.777344 94.316406 69.21875 95.65625 72.988281 94.847656 C 76.15625 94.171875 77.78125 93.5625 79.054688 91.746094 C 80.90625 89.109375 81.945312 83.804688 82.132812 75.980469 L 85.984375 76.074219 L 82.160156 75.613281 L 82.273438 74.660156 C 82.640625 71.511719 82.902344 69.234375 85.007812 67.730469 C 86.695312 66.523438 88.621094 66.640625 90.152344 66.917969 C 88.46875 65.648438 88.003906 64.152344 87.878906 63.539062 L 87.558594 61.960938 L 88.460938 60.617188 C 93.660156 52.902344 97.949219 43.421875 100.226562 34.601562 C 102.566406 25.539062 101.855469 20.726562 101.140625 19.816406 C 91.695312 7.746094 75.3125 12.726562 73.601562 13.296875 L 73.3125 13.449219 L 71.863281 13.722656 L 71.117188 13.566406 C 69.070312 13.144531 66.796875 12.90625 64.359375 12.867188 C 60.527344 12.804688 57.4375 13.710938 54.902344 15.632812 L 53.144531 16.964844 L 51.105469 16.125 C 46.746094 14.34375 33.941406 10.757812 27.1875 15.542969 C 23.4375 18.199219 21.730469 23.40625 22.109375 31.015625 C 22.234375 33.527344 23.941406 43.035156 26.757812 52.257812 C 30.648438 65.003906 34.183594 69.238281 35.660156 69.730469 C 35.914062 69.816406 36.585938 69.296875 37.25 68.5 C 41.574219 63.296875 45.691406 58.960938 45.863281 58.777344 L 48.09375 56.429688 L 50.789062 58.222656 C 51.878906 58.945312 53.078125 59.355469 54.308594 59.429688 L 60.742188 53.945312 L 59.808594 63.453125 C 59.789062 63.667969 59.777344 63.960938 59.863281 64.5 L 60.144531 66.300781 L 58.929688 67.660156 L 58.789062 67.816406 L 62.324219 69.449219 Z M 63.804688 67.597656 "/>
<path style=" stroke:none;fill-rule:nonzero;fill:rgb(20%,40.392157%,56.862745%);fill-opacity:1;" d="M 103.644531 64.257812 C 92.429688 66.570312 91.660156 62.773438 91.660156 62.773438 C 103.5 45.203125 108.449219 22.898438 104.179688 17.4375 C 92.523438 2.546875 72.351562 9.589844 72.011719 9.773438 L 71.902344 9.792969 C 69.6875 9.332031 67.210938 9.058594 64.421875 9.015625 C 59.347656 8.929688 55.496094 10.34375 52.574219 12.558594 C 52.574219 12.558594 16.585938 -2.265625 18.261719 31.207031 C 18.617188 38.328125 28.46875 85.089844 40.214844 70.964844 C 44.511719 65.800781 48.660156 61.433594 48.660156 61.433594 C 50.71875 62.800781 53.1875 63.5 55.773438 63.25 L 55.976562 63.078125 C 55.914062 63.71875 55.941406 64.347656 56.054688 65.089844 C 53.027344 68.472656 53.917969 69.066406 47.867188 70.3125 C 41.742188 71.574219 45.339844 73.820312 47.691406 74.40625 C 50.535156 75.117188 57.121094 76.128906 61.574219 69.898438 L 61.394531 70.609375 C 62.582031 71.558594 63.414062 76.785156 63.273438 81.527344 C 63.132812 86.265625 63.039062 89.519531 63.976562 92.0625 C 64.910156 94.605469 65.84375 100.324219 73.796875 98.621094 C 80.441406 97.195312 83.886719 93.503906 84.367188 87.347656 C 84.707031 82.972656 85.476562 83.617188 85.523438 79.703125 L 86.140625 77.851562 C 86.851562 71.917969 86.253906 70.003906 90.351562 70.894531 L 91.34375 70.980469 C 94.359375 71.117188 98.304688 70.496094 100.617188 69.421875 C 105.605469 67.105469 108.5625 63.242188 103.644531 64.257812 Z M 103.644531 64.257812 "/>
<path style=" stroke:none;fill-rule:nonzero;fill:rgb(100%,100%,100%);fill-opacity:1;" d="M 71.609375 100.394531 C 64.980469 100.394531 62.878906 95.144531 62.019531 92.996094 C 60.761719 89.851562 60.488281 77.640625 60.769531 67.625 C 60.789062 66.914062 61.378906 66.351562 62.089844 66.375 C 62.800781 66.394531 63.359375 66.984375 63.339844 67.695312 C 63.015625 79.246094 63.476562 89.714844 64.40625 92.042969 C 65.859375 95.675781 68.0625 98.851562 74.292969 97.515625 C 80.207031 96.246094 82.421875 94.003906 83.410156 88.285156 C 84.167969 83.898438 85.664062 71.414062 85.847656 68.949219 C 85.898438 68.242188 86.515625 67.710938 87.222656 67.761719 C 87.933594 67.816406 88.464844 68.433594 88.410156 69.140625 C 88.21875 71.703125 86.726562 84.164062 85.941406 88.722656 C 84.777344 95.480469 81.765625 98.542969 74.832031 100.03125 C 73.652344 100.28125 72.582031 100.394531 71.609375 100.394531 Z M 35.660156 74.75 C 35.027344 74.75 34.453125 74.632812 33.953125 74.46875 C 29.648438 73.03125 25.546875 66.015625 21.761719 53.617188 C 18.882812 44.179688 17.058594 34.332031 16.898438 31.128906 C 16.421875 21.640625 18.867188 14.925781 24.160156 11.171875 C 34.636719 3.75 52.261719 10.820312 53.007812 11.121094 C 53.664062 11.390625 53.980469 12.140625 53.710938 12.800781 C 53.441406 13.453125 52.691406 13.769531 52.035156 13.503906 C 51.863281 13.433594 34.964844 6.664062 25.644531 13.273438 C 21.113281 16.484375 19.035156 22.449219 19.464844 31.003906 C 19.597656 33.699219 21.304688 43.3125 24.21875 52.871094 C 27.597656 63.9375 31.441406 70.921875 34.769531 72.03125 C 35.289062 72.203125 36.878906 72.734375 39.148438 70.003906 C 43.421875 64.863281 47.347656 60.761719 47.386719 60.722656 C 47.875 60.207031 48.691406 60.191406 49.203125 60.683594 C 49.714844 61.171875 49.730469 61.988281 49.242188 62.5 C 49.203125 62.539062 45.335938 66.578125 41.125 71.648438 C 39.128906 74.046875 37.21875 74.75 35.660156 74.75 Z M 91.578125 63.921875 C 91.332031 63.921875 91.082031 63.847656 90.863281 63.699219 C 90.273438 63.304688 90.117188 62.503906 90.515625 61.914062 C 102.484375 44.152344 106.6875 22.6875 103.089844 18.089844 C 98.558594 12.304688 92.160156 9.277344 84.074219 9.105469 C 78.089844 8.976562 73.328125 10.503906 72.554688 10.773438 L 72.359375 10.851562 C 71.574219 11.097656 70.976562 10.667969 70.75 10.167969 C 70.480469 9.574219 70.703125 8.871094 71.257812 8.535156 L 71.605469 8.394531 L 71.585938 8.398438 L 71.605469 8.394531 C 72.925781 7.910156 77.757812 6.460938 83.742188 6.527344 C 92.6875 6.621094 100.078125 10.074219 105.113281 16.507812 C 107.496094 19.550781 107.5 26.5625 105.128906 35.746094 C 102.710938 45.109375 98.160156 55.171875 92.644531 63.351562 C 92.398438 63.722656 91.992188 63.921875 91.578125 63.921875 Z M 92.191406 72.144531 C 90.144531 72.144531 88.3125 71.855469 87.21875 71.199219 C 86.089844 70.523438 85.875 69.605469 85.847656 69.117188 C 85.539062 63.714844 88.519531 62.773438 90.039062 62.34375 C 89.828125 62.023438 89.527344 61.644531 89.214844 61.257812 C 88.328125 60.148438 87.113281 58.632812 86.179688 56.359375 C 86.03125 56.007812 85.574219 55.183594 85.039062 54.226562 C 82.15625 49.058594 76.160156 38.300781 80.011719 32.792969 C 81.796875 30.242188 85.347656 29.242188 90.578125 29.800781 C 89.039062 25.113281 81.710938 10.441406 64.320312 10.15625 C 59.089844 10.070312 54.800781 11.679688 51.574219 14.933594 C 44.359375 22.222656 44.621094 35.410156 44.625 35.539062 C 44.644531 36.25 44.082031 36.839844 43.371094 36.859375 C 42.664062 36.882812 42.074219 36.316406 42.054688 35.609375 C 42.039062 35.023438 41.769531 21.183594 49.75 13.125 C 53.484375 9.351562 58.402344 7.488281 64.363281 7.585938 C 75.488281 7.769531 82.652344 13.425781 86.699219 18.140625 C 91.113281 23.277344 93.277344 28.941406 93.453125 30.832031 C 93.585938 32.238281 92.578125 32.519531 92.375 32.5625 L 91.910156 32.570312 C 86.777344 31.75 83.480469 32.320312 82.121094 34.265625 C 79.1875 38.453125 84.863281 48.628906 87.285156 52.976562 C 87.90625 54.085938 88.351562 54.886719 88.554688 55.378906 C 89.351562 57.308594 90.390625 58.605469 91.222656 59.648438 C 91.957031 60.566406 92.59375 61.359375 92.820312 62.292969 C 92.925781 62.480469 94.421875 64.691406 103.308594 62.859375 C 105.535156 62.398438 106.871094 62.792969 107.277344 64.027344 C 108.082031 66.457031 103.574219 69.289062 101.082031 70.445312 C 98.84375 71.484375 95.277344 72.144531 92.191406 72.144531 Z M 88.410156 68.90625 C 88.691406 69.191406 90.101562 69.679688 93.019531 69.554688 C 95.617188 69.441406 98.355469 68.878906 100 68.117188 C 102.101562 67.140625 103.503906 66.050781 104.230469 65.304688 L 103.828125 65.378906 C 98.144531 66.550781 94.128906 66.394531 91.886719 64.914062 C 91.722656 64.808594 91.582031 64.699219 91.449219 64.589844 C 91.207031 64.6875 90.980469 64.75 90.820312 64.792969 C 89.550781 65.152344 88.234375 65.519531 88.410156 68.90625 Z M 51.710938 76.085938 C 50.300781 76.085938 48.816406 75.894531 47.300781 75.511719 C 45.726562 75.117188 43.078125 73.9375 43.117188 71.992188 C 43.164062 69.8125 46.335938 69.15625 47.53125 68.910156 C 51.84375 68.023438 52.121094 67.667969 53.472656 65.957031 C 53.863281 65.457031 54.351562 64.835938 55.019531 64.09375 C 56.007812 62.984375 57.089844 62.421875 58.234375 62.421875 C 59.03125 62.421875 59.683594 62.695312 60.117188 62.871094 C 61.492188 63.441406 62.640625 64.820312 63.113281 66.46875 C 63.539062 67.957031 63.335938 69.390625 62.539062 70.503906 C 59.933594 74.15625 56.1875 76.085938 51.710938 76.085938 Z M 45.894531 72.105469 C 46.28125 72.402344 47.058594 72.804688 47.921875 73.019531 C 49.234375 73.347656 50.511719 73.515625 51.710938 73.515625 C 55.375 73.515625 58.3125 71.996094 60.449219 69.007812 C 60.894531 68.386719 60.761719 67.59375 60.640625 67.175781 C 60.390625 66.304688 59.773438 65.511719 59.132812 65.246094 C 58.785156 65.101562 58.5 64.992188 58.234375 64.992188 C 58.09375 64.992188 57.660156 64.992188 56.933594 65.804688 C 56.320312 66.492188 55.878906 67.050781 55.488281 67.546875 C 53.8125 69.675781 53.042969 70.398438 48.046875 71.429688 C 46.828125 71.679688 46.203125 71.933594 45.894531 72.105469 Z M 55.777344 66.175781 C 55.152344 66.175781 54.605469 65.722656 54.507812 65.085938 C 54.476562 64.871094 54.453125 64.65625 54.445312 64.441406 C 51.171875 64.378906 48.011719 62.976562 45.613281 60.472656 C 42.585938 57.3125 41.203125 52.929688 41.828125 48.453125 C 42.511719 43.589844 42.257812 39.296875 42.117188 36.992188 C 42.082031 36.351562 42.054688 35.886719 42.054688 35.566406 C 42.058594 35.160156 42.066406 34.082031 45.671875 32.253906 C 46.953125 31.605469 49.523438 30.472656 52.332031 30.179688 C 56.984375 29.699219 60.054688 31.773438 60.972656 36.015625 C 63.449219 47.476562 61.167969 52.546875 59.5 56.246094 C 59.191406 56.933594 58.898438 57.585938 58.664062 58.214844 L 58.457031 58.773438 C 57.574219 61.132812 56.816406 63.171875 57.050781 64.695312 C 57.15625 65.398438 56.675781 66.054688 55.972656 66.160156 Z M 44.632812 35.921875 L 44.683594 36.839844 C 44.828125 39.234375 45.089844 43.691406 44.375 48.808594 C 43.859375 52.5 44.988281 56.105469 47.46875 58.695312 C 49.433594 60.746094 52.015625 61.875 54.671875 61.875 L 54.726562 61.875 C 55.023438 60.621094 55.515625 59.300781 56.046875 57.875 L 56.253906 57.320312 C 56.519531 56.609375 56.828125 55.921875 57.15625 55.191406 C 58.761719 51.628906 60.757812 47.191406 58.457031 36.558594 C 58.003906 34.453125 56.898438 33.234375 55.082031 32.832031 C 51.355469 32.007812 45.800781 34.8125 44.632812 35.921875 Z M 52.390625 35.378906 C 52.324219 35.832031 53.222656 37.042969 54.390625 37.207031 C 55.558594 37.367188 56.558594 36.421875 56.621094 35.96875 C 56.683594 35.511719 55.785156 35.011719 54.617188 34.847656 C 53.449219 34.6875 52.453125 34.921875 52.390625 35.378906 Z M 54.660156 37.652344 L 54.332031 37.632812 C 53.605469 37.53125 52.875 37.074219 52.371094 36.40625 C 52.195312 36.175781 51.910156 35.722656 51.964844 35.316406 C 52.046875 34.722656 52.769531 34.371094 53.898438 34.371094 C 54.152344 34.371094 54.414062 34.390625 54.679688 34.425781 C 55.296875 34.511719 55.867188 34.6875 56.289062 34.925781 C 57.023438 35.335938 57.078125 35.789062 57.046875 36.027344 C 56.953125 36.679688 55.910156 37.652344 54.660156 37.652344 Z M 52.816406 35.453125 C 52.851562 35.734375 53.546875 36.65625 54.449219 36.78125 L 54.660156 36.796875 C 55.492188 36.796875 56.117188 36.140625 56.191406 35.925781 C 56.113281 35.78125 55.578125 35.414062 54.558594 35.273438 C 54.335938 35.242188 54.109375 35.226562 53.898438 35.226562 C 53.246094 35.226562 52.898438 35.371094 52.816406 35.453125 Z M 87.9375 34.449219 C 88 34.90625 87.105469 36.117188 85.9375 36.28125 C 84.769531 36.441406 83.769531 35.496094 83.703125 35.039062 C 83.644531 34.585938 84.539062 34.085938 85.707031 33.921875 C 86.875 33.757812 87.871094 33.996094 87.9375 34.449219 Z M 85.667969 36.511719 C 84.542969 36.511719 83.574219 35.636719 83.492188 35.070312 C 83.402344 34.390625 84.523438 33.871094 85.679688 33.710938 C 85.933594 33.675781 86.183594 33.65625 86.425781 33.65625 C 87.425781 33.65625 88.085938 33.949219 88.148438 34.421875 C 88.191406 34.726562 87.960938 35.199219 87.554688 35.621094 C 87.289062 35.902344 86.730469 36.386719 85.96875 36.492188 Z M 86.425781 34.085938 C 86.203125 34.085938 85.972656 34.101562 85.734375 34.132812 C 84.574219 34.296875 83.882812 34.761719 83.914062 35.011719 C 83.953125 35.285156 84.695312 36.085938 85.664062 36.085938 L 85.90625 36.066406 C 86.539062 35.976562 87.015625 35.566406 87.242188 35.324219 C 87.597656 34.949219 87.738281 34.597656 87.722656 34.476562 C 87.703125 34.320312 87.273438 34.085938 86.425781 34.085938 Z M 89.621094 60.539062 C 89.375 60.539062 89.125 60.46875 88.90625 60.320312 C 88.316406 59.925781 88.15625 59.128906 88.554688 58.539062 C 91.289062 54.449219 90.789062 50.28125 90.304688 46.253906 C 90.097656 44.535156 89.882812 42.757812 89.941406 41.054688 C 89.996094 39.300781 90.21875 37.855469 90.433594 36.453125 C 90.6875 34.796875 90.929688 33.230469 90.828125 31.371094 C 90.789062 30.664062 91.335938 30.058594 92.042969 30.019531 C 92.753906 29.980469 93.359375 30.527344 93.398438 31.234375 C 93.511719 33.359375 93.238281 35.132812 92.972656 36.847656 C 92.769531 38.167969 92.558594 39.535156 92.507812 41.136719 C 92.460938 42.644531 92.652344 44.246094 92.855469 45.945312 C 93.371094 50.230469 93.953125 55.089844 90.6875 59.96875 C 90.441406 60.335938 90.035156 60.539062 89.621094 60.539062 Z M 89.621094 60.539062 "/>
<path style=" stroke:none;fill-rule:nonzero;fill:rgb(0%,0%,0%);fill-opacity:1;" d="M 2.835938 103.183594 C 3.929688 103.003906 5.355469 102.847656 7.179688 102.847656 C 9.414062 102.847656 11.050781 103.367188 12.09375 104.300781 C 13.054688 105.132812 13.625 106.40625 13.625 107.96875 C 13.625 109.554688 13.15625 110.804688 12.273438 111.714844 C 11.078125 112.988281 9.128906 113.636719 6.917969 113.636719 C 6.242188 113.636719 5.617188 113.609375 5.097656 113.480469 L 5.097656 120.503906 L 2.835938 120.503906 Z M 5.097656 111.632812 C 5.59375 111.765625 6.214844 111.816406 6.96875 111.816406 C 9.699219 111.816406 11.363281 110.488281 11.363281 108.070312 C 11.363281 105.757812 9.726562 104.640625 7.230469 104.640625 C 6.242188 104.640625 5.488281 104.71875 5.097656 104.820312 Z M 27.328125 114.105469 C 27.328125 118.757812 24.101562 120.785156 21.0625 120.785156 C 17.65625 120.785156 15.027344 118.289062 15.027344 114.3125 C 15.027344 110.101562 17.785156 107.628906 21.269531 107.628906 C 24.882812 107.628906 27.328125 110.257812 27.328125 114.105469 Z M 17.34375 114.234375 C 17.34375 116.988281 18.929688 119.070312 21.164062 119.070312 C 23.351562 119.070312 24.988281 117.015625 24.988281 114.183594 C 24.988281 112.050781 23.921875 109.347656 21.21875 109.347656 C 18.511719 109.347656 17.34375 111.84375 17.34375 114.234375 Z M 29.902344 118.160156 C 30.578125 118.601562 31.773438 119.070312 32.917969 119.070312 C 34.582031 119.070312 35.359375 118.238281 35.359375 117.199219 C 35.359375 116.105469 34.710938 115.507812 33.019531 114.882812 C 30.757812 114.078125 29.691406 112.828125 29.691406 111.320312 C 29.691406 109.292969 31.332031 107.628906 34.035156 107.628906 C 35.308594 107.628906 36.429688 107.992188 37.128906 108.410156 L 36.558594 110.074219 C 36.0625 109.761719 35.152344 109.347656 33.984375 109.347656 C 32.632812 109.347656 31.878906 110.125 31.878906 111.0625 C 31.878906 112.101562 32.632812 112.570312 34.269531 113.195312 C 36.453125 114.027344 37.574219 115.117188 37.574219 116.988281 C 37.574219 119.199219 35.855469 120.761719 32.867188 120.761719 C 31.488281 120.761719 30.214844 120.421875 29.332031 119.902344 Z M 43.265625 104.300781 L 43.265625 107.914062 L 46.539062 107.914062 L 46.539062 109.65625 L 43.265625 109.65625 L 43.265625 116.441406 C 43.265625 118.003906 43.707031 118.886719 44.980469 118.886719 C 45.578125 118.886719 46.023438 118.808594 46.308594 118.730469 L 46.410156 120.445312 C 45.972656 120.628906 45.269531 120.757812 44.386719 120.757812 C 43.320312 120.757812 42.460938 120.421875 41.914062 119.796875 C 41.265625 119.121094 41.03125 118.003906 41.03125 116.519531 L 41.03125 109.65625 L 39.078125 109.65625 L 39.078125 107.914062 L 41.03125 107.914062 L 41.03125 104.898438 Z M 59.800781 107.914062 C 59.75 108.824219 59.699219 109.839844 59.699219 111.375 L 59.699219 118.679688 C 59.699219 121.566406 59.125 123.335938 57.902344 124.425781 C 56.683594 125.570312 54.914062 125.933594 53.328125 125.933594 C 51.820312 125.933594 50.15625 125.570312 49.140625 124.894531 L 49.714844 123.152344 C 50.546875 123.671875 51.84375 124.140625 53.40625 124.140625 C 55.746094 124.140625 57.460938 122.917969 57.460938 119.746094 L 57.460938 118.34375 L 57.410156 118.34375 C 56.707031 119.511719 55.355469 120.449219 53.40625 120.449219 C 50.285156 120.449219 48.050781 117.796875 48.050781 114.3125 C 48.050781 110.046875 50.832031 107.628906 53.71875 107.628906 C 55.902344 107.628906 57.097656 108.773438 57.644531 109.8125 L 57.695312 109.8125 L 57.800781 107.914062 Z M 57.4375 112.882812 C 57.4375 112.492188 57.410156 112.152344 57.304688 111.84375 C 56.890625 110.515625 55.773438 109.425781 54.109375 109.425781 C 51.921875 109.425781 50.363281 111.269531 50.363281 114.183594 C 50.363281 116.652344 51.613281 118.707031 54.082031 118.707031 C 55.484375 118.707031 56.761719 117.820312 57.253906 116.367188 C 57.382812 115.976562 57.4375 115.535156 57.4375 115.144531 Z M 63.335938 111.84375 C 63.335938 110.359375 63.3125 109.085938 63.234375 107.914062 L 65.234375 107.914062 L 65.3125 110.386719 L 65.417969 110.386719 C 65.988281 108.695312 67.367188 107.628906 68.902344 107.628906 C 69.160156 107.628906 69.34375 107.65625 69.550781 107.707031 L 69.550781 109.867188 C 69.316406 109.8125 69.082031 109.789062 68.769531 109.789062 C 67.160156 109.789062 66.015625 111.011719 65.703125 112.726562 C 65.652344 113.039062 65.597656 113.402344 65.597656 113.792969 L 65.597656 120.5 L 63.335938 120.5 Z M 72.855469 114.625 C 72.90625 117.71875 74.882812 118.992188 77.167969 118.992188 C 78.808594 118.992188 79.796875 118.707031 80.652344 118.34375 L 81.042969 119.980469 C 80.238281 120.34375 78.859375 120.761719 76.855469 120.761719 C 72.984375 120.761719 70.667969 118.210938 70.667969 114.414062 C 70.667969 110.621094 72.90625 107.628906 76.570312 107.628906 C 80.679688 107.628906 81.769531 111.242188 81.769531 113.558594 C 81.769531 114.023438 81.71875 114.390625 81.691406 114.621094 L 72.855469 114.621094 Z M 79.5625 112.984375 C 79.585938 111.53125 78.964844 109.269531 76.390625 109.269531 C 74.074219 109.269531 73.0625 111.398438 72.878906 112.984375 Z M 79.5625 112.984375 "/>
<path style=" stroke:none;fill-rule:nonzero;fill:rgb(20%,40.392157%,56.862745%);fill-opacity:1;" d="M 84.371094 117.742188 C 85.386719 118.367188 86.867188 118.886719 88.425781 118.886719 C 90.742188 118.886719 92.09375 117.664062 92.09375 115.898438 C 92.09375 114.261719 91.15625 113.324219 88.789062 112.414062 C 85.929688 111.398438 84.164062 109.917969 84.164062 107.449219 C 84.164062 104.71875 86.425781 102.691406 89.832031 102.691406 C 91.625 102.691406 92.925781 103.105469 93.703125 103.546875 L 93.082031 105.394531 C 92.507812 105.082031 91.339844 104.5625 89.753906 104.5625 C 87.359375 104.5625 86.449219 105.992188 86.449219 107.1875 C 86.449219 108.824219 87.515625 109.632812 89.933594 110.566406 C 92.898438 111.714844 94.40625 113.140625 94.40625 115.714844 C 94.40625 118.421875 92.40625 120.761719 88.269531 120.761719 C 86.582031 120.761719 84.734375 120.265625 83.796875 119.640625 Z M 111.957031 123.074219 C 109.589844 122.449219 107.277344 121.746094 105.25 121.046875 C 104.886719 120.914062 104.519531 120.785156 104.183594 120.785156 C 100.023438 120.628906 96.460938 117.5625 96.460938 111.921875 C 96.460938 106.304688 99.894531 102.691406 104.625 102.691406 C 109.382812 102.691406 112.476562 106.382812 112.476562 111.554688 C 112.476562 116.054688 110.398438 118.941406 107.484375 119.953125 L 107.484375 120.058594 C 109.226562 120.5 111.125 120.914062 112.609375 121.175781 Z M 110.085938 111.660156 C 110.085938 108.148438 108.265625 104.535156 104.546875 104.535156 C 100.726562 104.535156 98.851562 108.070312 98.878906 111.867188 C 98.851562 115.585938 100.90625 118.941406 104.441406 118.941406 C 108.058594 118.941406 110.085938 115.664062 110.085938 111.660156 Z M 115.414062 102.976562 L 117.675781 102.976562 L 117.675781 118.601562 L 125.164062 118.601562 L 125.164062 120.5 L 115.414062 120.5 Z M 115.414062 102.976562 "/>
</g>
</svg>
