<?xml version="1.0" encoding="UTF-8"?>
<svg xmlns="http://www.w3.org/2000/svg" xmlns:xlink="http://www.w3.org/1999/xlink" width="128pt" height="96pt" viewBox="0 0 128 96" version="1.1">
<g id="surface1">
<path style=" stroke:none;fill-rule:nonzero;fill:rgb(81.176471%,39.215686%,60.392157%);fill-opacity:1;" d="M 110.148438 55.148438 C 105.675781 55.175781 101.800781 56.25 98.550781 57.851562 C 97.351562 55.476562 96.148438 53.398438 95.949219 51.851562 C 95.726562 50.050781 95.449219 48.949219 95.726562 46.800781 C 96 44.648438 97.25 41.601562 97.25 41.351562 C 97.226562 41.125 96.976562 40.023438 94.398438 40 C 91.824219 39.976562 89.601562 40.5 89.351562 41.175781 C 89.101562 41.851562 88.601562 43.398438 88.273438 45 C 87.824219 47.351562 83.125 55.675781 80.449219 60.050781 C 79.574219 58.351562 78.824219 56.851562 78.675781 55.648438 C 78.449219 53.851562 78.175781 52.75 78.449219 50.601562 C 78.726562 48.449219 79.976562 45.398438 79.976562 45.148438 C 79.949219 44.925781 79.699219 43.824219 77.125 43.800781 C 74.550781 43.773438 72.324219 44.300781 72.074219 44.976562 C 71.824219 45.648438 71.550781 47.25 71 48.800781 C 70.476562 50.351562 64.226562 64.25 62.601562 67.875 C 61.773438 69.726562 61.050781 71.199219 60.523438 72.199219 C 60 73.199219 60.5 72.273438 60.449219 72.375 C 60 73.226562 59.75 73.699219 59.75 73.699219 L 59.75 73.726562 C 59.398438 74.351562 59.023438 74.949219 58.851562 74.949219 C 58.726562 74.949219 58.476562 73.273438 58.898438 70.976562 C 59.824219 66.148438 62.074219 58.625 62.050781 58.351562 C 62.050781 58.226562 62.476562 56.898438 60.601562 56.226562 C 58.773438 55.550781 58.125 56.675781 57.976562 56.675781 C 57.824219 56.675781 57.699219 57.074219 57.699219 57.074219 C 57.699219 57.074219 59.726562 48.601562 53.824219 48.601562 C 50.125 48.601562 45.023438 52.625 42.5 56.300781 C 40.898438 57.175781 37.5 59.023438 33.898438 61 C 32.523438 61.75 31.101562 62.550781 29.75 63.277344 L 29.476562 62.976562 C 22.324219 55.351562 9.101562 49.949219 9.648438 39.699219 C 9.851562 35.976562 11.148438 26.148438 35.050781 14.25 C 54.625 4.5 70.300781 7.175781 73.023438 13.125 C 76.898438 21.625 64.648438 37.425781 44.300781 39.699219 C 36.550781 40.574219 32.476562 37.574219 31.449219 36.449219 C 30.375 35.273438 30.226562 35.226562 29.824219 35.449219 C 29.175781 35.800781 29.574219 36.851562 29.824219 37.476562 C 30.425781 39.050781 32.925781 41.851562 37.175781 43.25 C 40.898438 44.476562 50 45.148438 61 40.898438 C 73.324219 36.125 82.949219 22.875 80.125 11.800781 C 77.25 0.523438 58.550781 -3.175781 40.875 3.101562 C 30.351562 6.851562 18.949219 12.699219 10.75 20.375 C 1 29.476562 -0.550781 37.425781 0.101562 40.726562 C 2.375 52.5 18.601562 60.175781 25.101562 65.851562 C 24.773438 66.023438 24.476562 66.199219 24.199219 66.351562 C 20.949219 67.949219 8.574219 74.425781 5.476562 81.273438 C 1.976562 89.023438 6.023438 94.601562 8.726562 95.351562 C 17.074219 97.675781 25.625 93.5 30.25 86.625 C 34.851562 79.75 34.300781 70.824219 32.175781 66.75 L 32.101562 66.601562 L 34.648438 65.101562 C 36.300781 64.125 37.925781 63.226562 39.351562 62.449219 C 38.550781 64.625 37.976562 67.199219 37.675781 70.949219 C 37.324219 75.351562 39.125 81.050781 41.5 83.300781 C 42.550781 84.273438 43.800781 84.300781 44.574219 84.300781 C 47.324219 84.300781 48.574219 82.023438 49.949219 79.300781 C 51.648438 75.976562 53.148438 72.125 53.148438 72.125 C 53.148438 72.125 51.273438 82.550781 56.398438 82.550781 C 58.273438 82.550781 60.148438 80.125 61 78.875 L 61 78.898438 C 61 78.898438 61.050781 78.824219 61.148438 78.648438 C 61.253906 78.496094 61.355469 78.335938 61.449219 78.175781 L 61.449219 78.125 C 62.199219 76.824219 63.875 73.851562 66.375 68.925781 C 69.601562 62.574219 72.699219 54.625 72.699219 54.625 C 72.699219 54.625 73 56.574219 73.925781 59.773438 C 74.476562 61.675781 75.675781 63.75 76.601562 65.773438 C 75.851562 66.824219 75.398438 67.425781 75.398438 67.425781 L 75.425781 67.449219 C 74.824219 68.25 74.148438 69.101562 73.449219 69.949219 C 70.898438 73 67.851562 76.476562 67.449219 77.476562 C 66.976562 78.648438 67.074219 79.523438 68 80.226562 C 68.675781 80.726562 69.875 80.824219 71.148438 80.726562 C 73.449219 80.574219 75.050781 80 75.851562 79.648438 C 77.101562 79.199219 78.523438 78.523438 79.898438 77.523438 C 82.398438 75.675781 83.925781 73.050781 83.773438 69.550781 C 83.699219 67.625 83.074219 65.726562 82.300781 63.925781 C 82.523438 63.601562 82.75 63.273438 82.976562 62.925781 C 86.925781 57.148438 89.976562 50.800781 89.976562 50.800781 C 89.976562 50.800781 90.273438 52.75 91.199219 55.949219 C 91.675781 57.574219 92.625 59.351562 93.476562 61.101562 C 89.773438 64.125 87.449219 67.625 86.648438 69.925781 C 85.175781 74.175781 86.324219 76.101562 88.5 76.550781 C 89.476562 76.75 90.875 76.300781 91.925781 75.851562 C 93.226562 75.425781 94.800781 74.699219 96.25 73.625 C 98.75 71.777344 101.148438 69.199219 101.023438 65.726562 C 100.949219 64.125 100.523438 62.550781 99.949219 61.050781 C 103.101562 59.75 107.175781 59 112.351562 59.625 C 123.476562 60.925781 125.675781 67.875 125.25 70.777344 C 124.824219 73.675781 122.5 75.277344 121.726562 75.777344 C 120.949219 76.25 120.699219 76.425781 120.773438 76.777344 C 120.875 77.300781 121.226562 77.277344 121.898438 77.175781 C 122.824219 77.027344 127.75 74.800781 127.949219 69.453125 C 128.25 62.574219 121.726562 55.074219 110.148438 55.148438 Z M 24.351562 84.074219 C 20.675781 88.101562 15.5 89.625 13.300781 88.324219 C 10.925781 86.949219 11.851562 81.023438 16.375 76.75 C 19.125 74.148438 22.699219 71.75 25.050781 70.273438 C 25.574219 69.949219 26.375 69.476562 27.324219 68.898438 C 27.476562 68.800781 27.574219 68.75 27.574219 68.75 C 27.75 68.648438 27.949219 68.523438 28.148438 68.398438 C 29.824219 74.5 28.226562 79.851562 24.351562 84.074219 Z M 51.226562 65.800781 C 49.949219 68.925781 47.25 76.949219 45.625 76.5 C 44.226562 76.125 43.375 70.050781 45.351562 64.050781 C 46.351562 61.023438 48.476562 57.425781 49.726562 56.023438 C 51.75 53.773438 53.949219 53.023438 54.5 53.949219 C 55.148438 55.148438 52.023438 63.851562 51.226562 65.800781 Z M 73.398438 76.398438 C 72.851562 76.675781 72.351562 76.875 72.125 76.726562 C 71.949219 76.625 72.351562 76.25 72.351562 76.25 C 72.351562 76.25 75.125 73.273438 76.226562 71.898438 C 76.851562 71.101562 77.601562 70.175781 78.398438 69.125 L 78.398438 69.425781 C 78.398438 73.023438 74.949219 75.425781 73.398438 76.398438 Z M 90.5 72.5 C 90.101562 72.199219 90.148438 71.273438 91.5 68.375 C 92.023438 67.226562 93.226562 65.300781 95.300781 63.476562 C 95.550781 64.226562 95.699219 64.949219 95.675781 65.625 C 95.648438 70.125 92.449219 71.800781 90.5 72.5 Z M 90.5 72.5 "/>
</g>
</svg>
