<?xml version="1.0" encoding="UTF-8"?>
<svg xmlns="http://www.w3.org/2000/svg" xmlns:xlink="http://www.w3.org/1999/xlink" width="128pt" height="128pt" viewBox="0 0 128 128" version="1.1">
<g id="surface1">
<path style=" stroke:none;fill-rule:nonzero;fill:rgb(54.117647%,52.941176%,56.470588%);fill-opacity:1;" d="M 12 24 L 76 24 C 78.210938 24 80 25.789062 80 28 L 80 80 C 80 82.210938 78.210938 84 76 84 L 12 84 C 9.789062 84 8 82.210938 8 80 L 8 28 C 8 25.789062 9.789062 24 12 24 Z M 12 24 "/>
<path style=" stroke:none;fill-rule:nonzero;fill:rgb(30.588235%,72.54902%,91.372549%);fill-opacity:1;" d="M 18 32 L 70 32 C 71.105469 32 72 32.894531 72 34 L 72 66 C 72 67.105469 71.105469 68 70 68 L 18 68 C 16.894531 68 16 67.105469 16 66 L 16 34 C 16 32.894531 16.894531 32 18 32 Z M 18 32 "/>
<path style=" stroke:none;fill-rule:nonzero;fill:rgb(34.509804%,33.72549%,36.470588%);fill-opacity:1;" d="M 8 76 L 80 76 L 80 80 C 80 82.210938 78.210938 84 76 84 L 12 84 C 9.789062 84 8 82.210938 8 80 Z M 8 76 "/>
<path style=" stroke:none;fill-rule:nonzero;fill:rgb(68.235294%,67.843137%,69.803922%);fill-opacity:1;" d="M 92 24 L 120 24 C 122.210938 24 124 25.789062 124 28 L 124 96 C 124 98.210938 122.210938 100 120 100 L 92 100 C 89.789062 100 88 98.210938 88 96 L 88 28 C 88 25.789062 89.789062 24 92 24 Z M 92 24 "/>
<path style=" stroke:none;fill-rule:nonzero;fill:rgb(54.117647%,52.941176%,56.470588%);fill-opacity:1;" d="M 56.761719 100 L 31.238281 100 C 30.550781 100 29.90625 99.644531 29.539062 99.058594 C 29.171875 98.472656 29.136719 97.742188 29.441406 97.121094 L 36 84 L 52 84 L 58.558594 97.121094 C 58.863281 97.742188 58.828125 98.472656 58.460938 99.058594 C 58.09375 99.644531 57.449219 100 56.761719 100 Z M 56.761719 100 "/>
<path style=" stroke:none;fill-rule:nonzero;fill:rgb(84.705882%,84.313725%,85.098039%);fill-opacity:1;" d="M 98 32 L 114 32 C 115.105469 32 116 32.894531 116 34 L 116 38 C 116 39.105469 115.105469 40 114 40 L 98 40 C 96.894531 40 96 39.105469 96 38 L 96 34 C 96 32.894531 96.894531 32 98 32 Z M 98 32 "/>
<path style=" stroke:none;fill-rule:nonzero;fill:rgb(54.117647%,52.941176%,56.470588%);fill-opacity:1;" d="M 88 80 L 124 80 L 124 92 L 88 92 Z M 88 80 "/>
<path style=" stroke:none;fill-rule:nonzero;fill:rgb(34.509804%,33.72549%,36.470588%);fill-opacity:1;" d="M 88 92 L 124 92 L 124 96 C 124 98.210938 122.210938 100 120 100 L 92 100 C 89.789062 100 88 98.210938 88 96 Z M 88 92 "/>
<path style=" stroke:none;fill-rule:nonzero;fill:rgb(0%,0%,0%);fill-opacity:1;" d="M 100 62 L 96 62 C 94.894531 62 94 62.894531 94 64 C 94 65.105469 94.894531 66 96 66 L 100 66 C 101.105469 66 102 65.105469 102 64 C 102 62.894531 101.105469 62 100 62 Z M 120 22 L 92 22 C 88.6875 22 86 24.6875 86 28 L 86 96 C 86 99.3125 88.6875 102 92 102 L 120 102 C 123.3125 102 126 99.3125 126 96 L 126 28 C 126 24.6875 123.3125 22 120 22 Z M 122 96 C 122 97.105469 121.105469 98 120 98 L 92 98 C 90.894531 98 90 97.105469 90 96 L 90 94 L 122 94 Z M 122 90 L 90 90 L 90 82 L 122 82 Z M 122 78 L 90 78 L 90 28 C 90 26.894531 90.894531 26 92 26 L 120 26 C 121.105469 26 122 26.894531 122 28 Z M 114 46 C 111.789062 46 110 47.789062 110 50 C 110 52.210938 111.789062 54 114 54 C 116.210938 54 118 52.210938 118 50 C 118 47.789062 116.210938 46 114 46 Z M 114 50 Z M 70 30 L 18 30 C 15.789062 30 14 31.789062 14 34 L 14 66 C 14 68.210938 15.789062 70 18 70 L 70 70 C 72.210938 70 74 68.210938 74 66 L 74 34 C 74 31.789062 72.210938 30 70 30 Z M 70 66 L 18 66 L 18 34 L 70 34 Z M 104 50 C 102.894531 50 102 50.894531 102 52 C 102 53.105469 102.894531 54 104 54 C 105.105469 54 106 53.105469 106 52 C 106 50.894531 105.105469 50 104 50 Z M 100 70 L 96 70 C 94.894531 70 94 70.894531 94 72 C 94 73.105469 94.894531 74 96 74 L 100 74 C 101.105469 74 102 73.105469 102 72 C 102 70.894531 101.105469 70 100 70 Z M 76 22 L 12 22 C 8.6875 22 6 24.6875 6 28 L 6 80 C 6 83.3125 8.6875 86 12 86 L 32.761719 86 L 27.640625 96.199219 C 27.011719 97.445312 27.078125 98.925781 27.8125 100.109375 C 28.546875 101.292969 29.847656 102.007812 31.238281 102 L 56.761719 102 C 58.152344 102.007812 59.453125 101.292969 60.1875 100.109375 C 60.921875 98.925781 60.988281 97.445312 60.359375 96.199219 L 55.238281 86 L 76 86 C 79.3125 86 82 83.3125 82 80 L 82 28 C 82 24.6875 79.3125 22 76 22 Z M 56.761719 98 L 31.238281 98 L 37.238281 86 L 50.761719 86 Z M 78 80 C 78 81.105469 77.105469 82 76 82 L 12 82 C 10.894531 82 10 81.105469 10 80 L 10 78 L 78 78 Z M 78 74 L 10 74 L 10 28 C 10 26.894531 10.894531 26 12 26 L 76 26 C 77.105469 26 78 26.894531 78 28 Z M 114 30 L 98 30 C 95.789062 30 94 31.789062 94 34 L 94 38 C 94 40.210938 95.789062 42 98 42 L 114 42 C 116.210938 42 118 40.210938 118 38 L 118 34 C 118 31.789062 116.210938 30 114 30 Z M 114 40 L 114 38 L 98 38 L 98 34 L 114 34 Z M 114 40 "/>
</g>
</svg>
