<?xml version="1.0" encoding="UTF-8"?>
<svg xmlns="http://www.w3.org/2000/svg" xmlns:xlink="http://www.w3.org/1999/xlink" width="128pt" height="128pt" viewBox="0 0 128 128" version="1.1">
<g id="surface1">
<path style=" stroke:none;fill-rule:nonzero;fill:rgb(1.176471%,66.27451%,95.686275%);fill-opacity:1;" d="M 106.667969 53.332031 C 107.707031 48.710938 106.414062 43.25 100 37.332031 C 89.5625 46.78125 92.542969 56.605469 96 61.332031 C 96 61.332031 95.5625 64 85.332031 64 L 5.332031 64 C 5.332031 64 0.449219 106.667969 48 106.667969 C 89.585938 106.667969 101.261719 74.65625 103.542969 66.46875 C 104.492188 66.59375 105.542969 66.675781 106.667969 66.667969 C 112.394531 66.625 119.8125 63.542969 122.667969 52.042969 C 115.09375 49.414062 110.238281 50.601562 106.667969 53.332031 Z M 106.667969 53.332031 "/>
<path style=" stroke:none;fill-rule:nonzero;fill:rgb(0.784314%,53.333333%,81.960784%);fill-opacity:1;" d="M 5.769531 74.667969 C 7.726562 87.300781 15.957031 106.667969 48 106.667969 C 80.492188 106.667969 94.726562 87.125 100.492188 74.667969 Z M 5.769531 74.667969 "/>
<path style=" stroke:none;fill-rule:nonzero;fill:rgb(50.588235%,83.137255%,98.039216%);fill-opacity:1;" d="M 52.835938 106.5 C 50.375 105.648438 39.300781 103.59375 37.332031 88 C 26.105469 92.96875 16.164062 91.667969 11.792969 90.6875 C 17.550781 99.300781 28.238281 106.667969 48 106.667969 C 49.65625 106.667969 51.261719 106.605469 52.835938 106.5 Z M 52.835938 106.5 "/>
<path style=" stroke:none;fill-rule:nonzero;fill:rgb(100%,100%,100%);fill-opacity:1;" d="M 53.332031 85.332031 C 53.332031 88.277344 50.945312 90.667969 48 90.667969 C 45.054688 90.667969 42.667969 88.277344 42.667969 85.332031 C 42.667969 82.386719 45.054688 80 48 80 C 50.945312 80 53.332031 82.386719 53.332031 85.332031 Z M 53.332031 85.332031 "/>
<path style=" stroke:none;fill-rule:nonzero;fill:rgb(21.568627%,27.843137%,30.980392%);fill-opacity:1;" d="M 39.769531 89.59375 C 40.367188 90.9375 39.824219 92.6875 38.40625 93.105469 C 29.605469 95.699219 22.019531 96.042969 16.28125 96.042969 C 14.632812 94.457031 13.152344 92.703125 11.863281 90.8125 C 18.761719 90.8125 29.761719 90.492188 36.25 88.238281 C 37.644531 87.75 39.175781 88.238281 39.769531 89.59375 Z M 5.332031 72 C 5.332031 72 10.332031 72.332031 13.332031 69.332031 C 18.332031 73.835938 29.175781 72.238281 32 69.332031 C 34.835938 73.835938 50.5 73 53.332031 69.332031 C 56.667969 73.167969 71 74 74.667969 69.332031 C 75.945312 73.226562 92.851562 74.332031 96 69.332031 C 98.835938 72.238281 109.5 74.5 115.5 69.332031 C 116.996094 72.5 122.667969 72 122.667969 72 L 122.667969 74.667969 L 5.332031 74.667969 M 45.332031 85.332031 C 45.332031 86.800781 46.535156 88 48 88 C 49.464844 88 50.667969 86.800781 50.667969 85.332031 C 50.667969 83.867188 49.464844 82.667969 48 82.667969 C 46.535156 82.667969 45.332031 83.867188 45.332031 85.332031 Z M 45.332031 85.332031 "/>
<path style=" stroke:none;fill-rule:nonzero;fill:rgb(0.392157%,34.117647%,60.784314%);fill-opacity:1;" d="M 29.332031 64 L 16 64 L 16 50.667969 L 29.332031 50.667969 Z M 56 50.667969 L 42.667969 50.667969 L 42.667969 64 L 56 64 Z M 82.667969 50.667969 L 69.332031 50.667969 L 69.332031 64 L 82.667969 64 Z M 42.667969 37.332031 L 29.332031 37.332031 L 29.332031 50.667969 L 42.667969 50.667969 Z M 69.332031 37.332031 L 56 37.332031 L 56 50.667969 L 69.332031 50.667969 Z M 69.332031 37.332031 "/>
<path style=" stroke:none;fill-rule:nonzero;fill:rgb(0.784314%,53.333333%,81.960784%);fill-opacity:1;" d="M 42.667969 64 L 29.332031 64 L 29.332031 50.667969 L 42.667969 50.667969 Z M 69.332031 50.667969 L 56 50.667969 L 56 64 L 69.332031 64 Z M 69.332031 24 L 56 24 L 56 37.332031 L 69.332031 37.332031 Z M 56 37.332031 L 42.667969 37.332031 L 42.667969 50.667969 L 56 50.667969 Z M 56 37.332031 "/>
</g>
</svg>
