<?xml version="1.0" encoding="UTF-8"?>
<svg xmlns="http://www.w3.org/2000/svg" xmlns:xlink="http://www.w3.org/1999/xlink" width="128pt" height="179pt" viewBox="0 0 128 179" version="1.1">
<g id="surface1">
<path style=" stroke:none;fill-rule:nonzero;fill:rgb(89.411765%,30.196078%,14.901961%);fill-opacity:1;" d="M 127.535156 35.210938 L 115.917969 164.757812 L 63.691406 179.167969 L 11.609375 164.777344 L 0 35.210938 Z M 127.535156 35.210938 "/>
<path style=" stroke:none;fill-rule:nonzero;fill:rgb(94.509804%,39.607843%,16.078431%);fill-opacity:1;" d="M 63.769531 168.152344 L 105.972656 156.507812 L 115.898438 45.804688 L 63.769531 45.804688 Z M 63.769531 168.152344 "/>
<path style=" stroke:none;fill-rule:nonzero;fill:rgb(92.156863%,92.156863%,92.156863%);fill-opacity:1;" d="M 41.179688 77.585938 L 63.765625 77.585938 L 63.765625 61.703125 L 23.730469 61.703125 L 24.113281 65.96875 L 28.039062 109.757812 L 63.769531 109.757812 L 63.769531 93.859375 L 42.640625 93.859375 Z M 44.777344 117.695312 L 28.75 117.695312 L 30.988281 142.648438 L 63.695312 151.675781 L 63.765625 151.65625 L 63.765625 135.128906 L 63.695312 135.148438 L 45.917969 130.371094 L 44.78125 117.695312 Z M 44.777344 117.695312 "/>
<path style=" stroke:none;fill-rule:nonzero;fill:rgb(0%,0%,0%);fill-opacity:1;" d="M 11.863281 0 L 19.980469 0 L 19.980469 7.980469 L 27.402344 7.980469 L 27.402344 0 L 35.515625 0 L 35.515625 24.160156 L 27.402344 24.160156 L 27.402344 16.070312 L 19.980469 16.070312 L 19.980469 24.160156 L 11.863281 24.160156 Z M 46.183594 8.011719 L 39.042969 8.011719 L 39.042969 0 L 61.445312 0 L 61.445312 8.011719 L 54.300781 8.011719 L 54.300781 24.160156 L 46.1875 24.160156 L 46.1875 8.011719 Z M 65.003906 0 L 73.46875 0 L 78.671875 8.488281 L 83.867188 0 L 92.332031 0 L 92.332031 24.160156 L 84.25 24.160156 L 84.25 12.183594 L 78.667969 20.773438 L 78.527344 20.773438 L 72.941406 12.183594 L 72.941406 24.160156 L 65 24.160156 Z M 96.367188 0 L 104.484375 0 L 104.484375 16.175781 L 115.894531 16.175781 L 115.894531 24.160156 L 96.367188 24.160156 Z M 96.367188 0 "/>
<path style=" stroke:none;fill-rule:nonzero;fill:rgb(100%,100%,100%);fill-opacity:1;" d="M 63.714844 109.75 L 83.375 109.75 L 81.519531 130.359375 L 63.710938 135.140625 L 63.710938 151.675781 L 96.441406 142.644531 L 96.679688 139.957031 L 100.433594 98.121094 L 100.820312 93.855469 L 63.714844 93.855469 Z M 63.714844 77.546875 L 63.714844 77.585938 L 102.273438 77.585938 L 102.597656 74.015625 L 103.328125 65.949219 L 103.707031 61.6875 L 63.714844 61.6875 Z M 63.714844 77.546875 "/>
</g>
</svg>
