<svg id="Camada_1" data-name="Camada 1" xmlns="http://www.w3.org/2000/svg" viewBox="0 0 512 512"><defs><style>.cls-1{fill:#77f7aa;}.cls-2{fill:#deffe8;}.cls-3{fill:#24b361;}</style></defs><title>add-icon</title><path class="cls-1" d="M256,0C397.38,0,512,114.62,512,256S397.38,512,256,512,0,397.38,0,256H0C0,114.63,114.59,0,256,0ZM401.25,285.05V227H285.05V110.75H227V227H110.74v58.1H227v116.2h58.1V285.05Z" transform="translate(0 0)"/><polygon class="cls-2" points="401.25 226.95 401.25 285.05 285.05 285.05 285.05 401.25 226.95 401.25 226.95 285.05 110.75 285.05 110.75 226.95 226.95 226.95 226.95 110.75 285.05 110.75 285.05 226.95 401.25 226.95"/><path class="cls-3" d="M256,449.73c106.83,0,193.73-86.9,193.73-193.73S362.83,62.26,256,62.26,62.26,149.17,62.26,256,149.17,449.73,256,449.73Zm0-367.47c95.8,0,173.73,77.94,173.73,173.74S351.8,429.73,256,429.73,82.26,351.8,82.26,256,160.2,82.26,256,82.26Z" transform="translate(0 0)"/><path class="cls-3" d="M151.75,287H225v73.25A9.92,9.92,0,0,0,235.09,370h41.76A9.92,9.92,0,0,0,287,360.31V287h73.25A9.92,9.92,0,0,0,370,276.91V235.15A9.92,9.92,0,0,0,360.31,225H287V151.75A9.92,9.92,0,0,0,276.91,142H235.15A9.92,9.92,0,0,0,225,151.69V225H151.75A9.92,9.92,0,0,0,142,235.09v41.76A9.92,9.92,0,0,0,151.69,287ZM162,245h73.15a9.75,9.75,0,0,0,9.85-9.64V162h22v73.15a9.75,9.75,0,0,0,9.64,9.85H350v22H276.85a9.75,9.75,0,0,0-9.85,9.64V350H245V276.85a9.75,9.75,0,0,0-9.64-9.85H162Z" transform="translate(0 0)"/></svg>