<svg id="Camada_1" data-name="Camada 1" xmlns="http://www.w3.org/2000/svg" viewBox="0 0 3000 710"><title>background</title><path d="M452,724h-1a3.79,3.79,0,0,0-.21-1.42q-21.9-35.33-43.86-70.62L393.86,626.9Q353.44,558.22,313,489.54q-39.47-66.93-79-133.8Q177.8,260.4,121.74,165c-20.3-34.62-40.26-69.44-60.37-104.17q-11-19-22-38L58,14.88l90,0c1.83,0,3.66.1,5.49.1H838.1c2.66,0,5.33-.07,8-.11l18.77,4c-8.44,14.67-17,29.3-25.31,44-5.65,10-11.11,20-16.65,30L803,126l-13.73,24.71,11.06.49a36.79,36.79,0,0,1-6.45.25c-4-.5-6.75,1.12-9,4.13a77.32,77.32,0,0,0-4.8,6.9c-12,20.51-24,41.07-36,61.58q-26.38,45.07-52.84,90.11Q669,352.43,646.7,390.75,624.79,428.39,602.9,466c-17,29.25-34.51,58.26-51,87.83C544,568,538,583.21,531.1,597.94L510.56,626c10.76,0,19.85-.08,28.93,0,6.1.07,12.21.39,18.31.6-14.47.07-28.95,0-43.42.32-1.92,0-4.67,1.14-5.58,2.64Q480.21,676.7,452,724Z" transform="translate(-6 -14)" style="fill:#00baf8"/><path d="M452,724q28.33-47.24,56.8-94.39c.91-1.5,3.66-2.61,5.58-2.64,14.47-.29,29-.25,43.42-.32,1.5.12,3,.33,4.47.33q36.24.12,72.47.17,19.18,35,38.39,70c4.31,7.84,10.85,12.53,19.94,13.06,4.64.27,9.3.29,13.95.28q119.22-.15,238.44-.32,152.47-.09,304.94,0h17.14c-1.44-2.93-2.11-4.42-2.88-5.86q-19-35.65-38.09-71.32c-1-1.87-1.65-3.91-2.46-5.88,3.83,0,7.66-.11,11.5-.11H2906.72c2.5-17.1,4.91-33.55,7.31-50,1.16-5.51,2.41-11,3.46-16.53,2.87-15.15,5.66-30.33,8.48-45.49.86-4.05,1.79-8.09,2.56-12.16q4.78-25.41,9.48-50.83c.34-1.28.77-2.54,1-3.84q4.79-25.74,9.52-51.49,8.64-47.32,17.23-94.66,4.5-23,9-46,3.54-20.5,7.07-41l8-42.94,7.26-37,8.94-23V724Z" transform="translate(-6 -14)" style="fill:#fefefe"/><path d="M864.86,18.9l-18.77-4A2.67,2.67,0,0,1,846,14H3006V93c-2.14.16-4.28.47-6.42.47q-1030.27,0-2060.55,0c-6.65,0-13.3-.38-19.95-.59-4.94-6.88-9.8-13.82-14.82-20.64Q884.61,45.53,864.86,18.9Z" transform="translate(-6 -14)" style="fill:#fefefe"/><path d="M406.93,652q21.94,35.31,43.86,70.62A3.79,3.79,0,0,1,451,724H6V99h.74c1.53,4.79,2.32,10,4.79,14.26,3.1,5.33,7.58,9.86,11.46,14.74,1.39,2.63,2.7,5.3,4.19,7.87Q42,161.49,56.8,187.06L85.92,237c12.28,21.22,21.76,44.11,37.76,63.1.47,1.05.87,2.15,1.42,3.16,14.63,26.43,28.84,53.11,44,79.21,14.43,24.79,29.89,49,44.9,73.44L249,520a7.88,7.88,0,0,0,.61,1.85Q268.27,551,287,580c6.85,12.08,13.65,24.19,20.57,36.23,2.3,4,4.94,7.77,7.42,11.64,1.95,7.31,6.87,12.6,12.68,16.79,23.05,16.65,47.94,18.59,74.15,8.46A36.36,36.36,0,0,1,406.93,652Z" transform="translate(-6 -14)" style="fill:#fefefe"/><path d="M919.08,92.87c6.65.21,13.3.59,19.95.59q1030.28,0,2060.55,0c2.14,0,4.28-.31,6.42-.47v19l-8.94,23-10,0H836.63c-2,0-4,.15-6,0A63.51,63.51,0,0,1,803,126L822.9,92.92a33.08,33.08,0,0,0,5.75,1q42.35.1,84.71,0A31.29,31.29,0,0,0,919.08,92.87Z" transform="translate(-6 -14)" style="fill:#0099cd"/><path d="M6.74,99H6V14H58a2.88,2.88,0,0,1,0,.88L39.35,22.79Q24.74,55.4,10.12,88Z" transform="translate(-6 -14)" style="fill:#fefefe"/><path d="M846,14a2.67,2.67,0,0,0,.09.89c-2.66,0-5.33.11-8,.11H153.44c-1.83,0-3.66-.07-5.49-.1A3,3,0,0,0,148,14Z" transform="translate(-6 -14)" style="fill:#7fdcfb"/><path d="M148,14a3,3,0,0,1-.05.9l-90,0A2.88,2.88,0,0,0,58,14Z" transform="translate(-6 -14)" style="fill:#beecfc"/><path d="M531.1,597.94C538,583.21,544,568,551.92,553.85c16.47-29.57,33.94-58.58,51-87.83q21.92-37.62,43.8-75.27,22.29-38.29,44.62-76.57,26.37-45.09,52.84-90.11c12-20.51,23.94-41.07,36-61.58a77.32,77.32,0,0,1,4.8-6.9c2.21-3,5-4.63,9-4.13a37,37,0,0,0,6.46-.25c4.8.26,9.59.76,14.39.76q1049.46,0,2098.91,0l7.5,0c-.36,9.25-.12,18.56-1.26,27.71-1.35,10.82-3.89,21.49-5.92,32.23-.34,1.26-.75,2.51-1,3.79-1.17,5.84-1.31,12.14-3.7,17.42-2.8,6.23-3.18,12.39-3.21,18.83Q2901,275.47,2896,299a15.33,15.33,0,0,0-.86,2.31q-10.18,52.14-20.33,104.3c-3.27,16.8-6.47,33.62-9.71,50.43q-6.37,30-12.77,59.92-6.06,30.54-12.13,61.08c-1.38,4.8-3.26,9.52-4,14.41-.88,5.71-3.74,6.71-9.06,6.71q-1145-.2-2290-.12C535.1,598,533.1,598,531.1,597.94Z" transform="translate(-6 -14)" style="fill:#eaeaea"/><path d="M531.1,597.94c2,0,4,.06,6,.06q1145,0,2290,.12c5.32,0,8.18-1,9.06-6.71.76-4.89,2.64-9.61,4-14.41H2914c-2.4,16.44-4.81,32.89-7.31,50H1235.61c-3.84,0-7.67.07-11.5.11-2.16,0-4.33-.11-6.49-.11H641.74c-2.33,0-4.66.09-7,.14q-36.22-.07-72.47-.17c-1.49,0-3-.21-4.47-.33-6.1-.21-12.21-.53-18.31-.6-9.08-.1-18.17,0-28.93,0Z" transform="translate(-6 -14)" style="fill:#00a5dc"/><path d="M2921.15,152l-7.5,0q-1049.45,0-2098.91,0c-4.8,0-9.59-.5-14.39-.76l-11.07-.49L803,126a63.51,63.51,0,0,0,27.63,9c2,.18,4,0,6,0H2987.06l10,0-7.26,37a25,25,0,0,1-4.84.9c-19.6-.27-39.21-.66-58.81-.92-3,0-4.09-1.27-4.16-4.2C2921.87,162.56,2921.45,157.29,2921.15,152Z" transform="translate(-6 -14)" style="fill:#009ed1"/><path d="M10.12,88Q24.75,55.4,39.35,22.79q11,19,22,38C81.48,95.54,101.44,130.36,121.74,165q56,95.48,112.25,190.76,39.45,66.93,79,133.8,40.47,68.65,80.85,137.36c-8.83,0-17.65.06-26.48-.08-10.8-.17-21.6-.52-32.4-.79Q309,576,283,525.92c-12.25-23.58-22.37-48.22-36.66-70.82-14-22.2-26.79-45.22-40.22-67.81-4.49-7.55-9.35-14.88-14-22.31l-11-18a66.27,66.27,0,0,0-2.88-6.29c-9.11-15.43-18.59-30.64-27.37-46.25C136.55,269.21,120.65,245.18,102,223c-1.12-2.55-2.36-5.06-3.34-7.67C97,210.91,95.53,206.45,94,202L85,189l-1-2c-4.06-7.59-8.06-15.23-12.2-22.78C62.11,146.57,54.18,128.45,55,107.66c.32-8.51-.24-9.06-8.28-12.21a31.28,31.28,0,0,0-5.25-1.55C31,91.89,20.56,90,10.12,88Z" transform="translate(-6 -14)" style="fill:#018ab7"/><path d="M919.08,92.87A31.29,31.29,0,0,1,913.36,94q-42.36.1-84.71,0a33.08,33.08,0,0,1-5.75-1c5.54-10,11-20.06,16.65-30,8.36-14.71,16.87-29.34,25.31-44q19.71,26.66,39.4,53.33C909.28,79.05,914.14,86,919.08,92.87Z" transform="translate(-6 -14)" style="fill:#038ebe"/><path d="M335,626c10.8.27,21.6.62,32.4.79,8.83.14,17.65.06,26.48.08L406.93,652a36.36,36.36,0,0,0-5.13,1.16c-26.21,10.13-51.1,8.19-74.15-8.46-5.81-4.19-10.73-9.48-12.68-16.79Z" transform="translate(-6 -14)" style="fill:#edeeef"/><path d="M634.74,627.15c2.34,0,4.67-.14,7-.14h575.88c2.16,0,4.33.07,6.49.11.81,2,1.47,4,2.46,5.88q19,35.68,38.09,71.32c.77,1.44,1.44,2.93,2.88,5.86H1250.4q-152.48,0-304.94,0-119.22.08-238.44.32c-4.65,0-9.31,0-13.95-.28-9.09-.53-15.63-5.22-19.94-13.06Q653.89,662.2,634.74,627.15Z" transform="translate(-6 -14)" style="fill:#00baf8"/><path d="M2865.07,456c3.24-16.81,6.44-33.63,9.71-50.43q10.13-52.15,20.33-104.3A15.33,15.33,0,0,1,2896,299c1.2.67,2.36,1.86,3.6,1.94,7.6.51,15.22,1,22.84,1.05,14.45.16,28.9.05,43.36.06q-8.62,47.33-17.23,94.66-4.71,25.75-9.52,51.49c-.24,1.3-.67,2.56-1,3.84-2.66,0-5.32,0-8,.12Q2897.55,454,2865.07,456Z" transform="translate(-6 -14)" style="fill:#03c3fc"/><path d="M2914,577h-73.86q6.06-30.54,12.13-61.08a53.36,53.36,0,0,1,6.84-.89c22.27-.07,44.55,0,66.83,0-2.82,15.16-5.61,30.34-8.48,45.49C2916.44,566,2915.19,571.5,2914,577Z" transform="translate(-6 -14)" style="fill:#03b0e6"/><path d="M2926,515c-22.28,0-44.56,0-66.83,0a53.36,53.36,0,0,0-6.84.89q6.39-30,12.77-59.92,32.49-2,65-3.88c2.65-.15,5.31-.09,8-.12q-4.74,25.41-9.48,50.83C2927.76,506.9,2926.83,510.94,2926,515Z" transform="translate(-6 -14)" style="fill:#03baf2"/><path d="M2965.77,302c-14.46,0-28.91.1-43.36-.06-7.62-.08-15.24-.54-22.84-1.05-1.24-.08-2.4-1.27-3.6-1.94q5-23.47,10.09-47c1.65,0,3.31,0,5,.12q31.88,1.92,63.76,3.88Q2970.27,279,2965.77,302Z" transform="translate(-6 -14)" style="fill:#02bbf2"/><path d="M2921.15,152c.3,5.27.72,10.54.84,15.81.07,2.93,1.17,4.16,4.16,4.2,19.6.26,39.21.65,58.81.92a25,25,0,0,0,4.84-.9l-8,42.94c-21.09-.33-42.19-.62-63.28-1.08-1.54,0-3.07-1.27-4.6-1.95,2-10.74,4.57-21.41,5.92-32.23C2921,170.58,2920.79,161.27,2921.15,152Z" transform="translate(-6 -14)" style="fill:#03aade"/><path d="M2914,212c1.53.68,3.06,1.92,4.6,1.95,21.09.46,42.19.75,63.28,1.08q-3.53,20.5-7.07,41-31.89-1.94-63.76-3.88c-1.65-.1-3.31-.08-5-.12,0-6.44.41-12.6,3.21-18.83,2.39-5.28,2.53-11.58,3.7-17.42C2913.22,214.47,2913.63,213.22,2914,212Z" transform="translate(-6 -14)" style="fill:#02b2e8"/><path d="M181,347q5.52,9,11,18a53.82,53.82,0,0,0,2.31,5.46c7.85,14.22,16.09,28.24,23.56,42.65,4.31,8.33,7.54,17.23,11.06,26,2.52,6.24,4.71,12.62,7,18.94.43,2.1.85,4.2,1.29,6.3Q243.14,492.17,249,520L214,455.92c1-13-3.15-24.28-9.6-35.45-16.58-28.66-32.21-57.87-48.72-86.58a123.94,123.94,0,0,0-16.42-21.77c-4.38-4.76-10.35-8.06-15.61-12-16-19-25.48-41.88-37.76-63.1,14.22,12.69,28.92,24.89,42.53,38.2a217,217,0,0,1,34.47,44.37C168.51,329,174.94,337.88,181,347Z" transform="translate(-6 -14)" style="fill:#00b2e8"/><path d="M236,458c-2.33-6.32-4.52-12.7-7-18.94-3.52-8.73-6.75-17.63-11.06-26-7.47-14.41-15.71-28.43-23.56-42.65A53.82,53.82,0,0,1,192,365c4.69,7.43,9.55,14.76,14,22.31,13.43,22.59,26.18,45.61,40.22,67.81,14.29,22.6,24.41,47.24,36.66,70.82Q309,576,335,626l-20,1.84c-2.48-3.87-5.12-7.66-7.42-11.64-6.92-12-13.72-24.15-20.57-36.23-.5-5.6.23-11.67-1.7-16.73C274.52,535,264.63,506.37,249.46,480,245.17,472.57,240.51,465.33,236,458Z" transform="translate(-6 -14)" style="fill:#009acc"/><path d="M10.12,88C20.56,90,31,91.89,41.42,93.9a31.28,31.28,0,0,1,5.25,1.55c8,3.15,8.6,3.7,8.28,12.21-.77,20.79,7.16,38.91,16.84,56.56,4.14,7.55,8.14,15.19,12.2,22.78-6-6.18-12.08-12.3-18-18.56-6.84-7.23-13.19-15-20.42-21.78S30.55,134.18,23,128c-3.88-4.88-8.36-9.41-11.46-14.74C9.06,109,8.27,103.79,6.74,99Z" transform="translate(-6 -14)" style="fill:#0196c8"/><path d="M181,347c-6.05-9.12-12.48-18-18.07-27.42a217,217,0,0,0-34.47-44.37C114.84,261.9,100.14,249.7,85.92,237L56.8,187.06a43.87,43.87,0,0,1,5.45,2.17C69.87,193.42,77.43,197.72,85,202l8,0c-.29,2.08-.13,4.36-1,6.21-3.57,8.06-2.5,10.81,5.75,13.52,1.4.46,2.84.82,4.26,1.22,18.62,22.2,34.52,46.23,48.71,71.48,8.78,15.61,18.26,30.82,27.37,46.25A66.27,66.27,0,0,1,181,347Z" transform="translate(-6 -14)" style="fill:#00a6d9"/><path d="M123.68,300.11c5.26,3.95,11.23,7.25,15.61,12a123.94,123.94,0,0,1,16.42,21.77c16.51,28.71,32.14,57.92,48.72,86.58,6.45,11.17,10.64,22.48,9.6,35.45-15-24.46-30.47-48.65-44.9-73.44-15.19-26.1-29.4-52.78-44-79.21C124.55,302.26,124.15,301.16,123.68,300.11Z" transform="translate(-6 -14)" style="fill:#00bbf3"/><path d="M236,458c4.5,7.34,9.16,14.58,13.45,22,15.17,26.35,25.06,55,35.82,83.25,1.93,5.06,1.2,11.13,1.7,16.73q-18.71-29.06-37.39-58.11A7.88,7.88,0,0,1,249,520q-5.85-27.87-11.68-55.75C236.86,462.19,236.44,460.09,236,458Z" transform="translate(-6 -14)" style="fill:#00a8dd"/><path d="M85,202c-7.58-4.27-15.14-8.57-22.76-12.76a43.87,43.87,0,0,0-5.45-2.17Q42,161.47,27.18,135.87c-1.49-2.57-2.8-5.24-4.19-7.87,7.56,6.18,15.48,12,22.57,18.66S59.14,161.21,66,168.44c5.93,6.26,12,12.38,18,18.56l1,2Z" transform="translate(-6 -14)" style="fill:#009dd0"/><path d="M102,223c-1.42-.4-2.86-.76-4.26-1.22-8.25-2.71-9.32-5.46-5.75-13.52.82-1.85.66-4.13,1-6.21h1c1.57,4.43,3.07,8.89,4.73,13.29C99.67,217.92,100.91,220.43,102,223Z" transform="translate(-6 -14)" style="fill:#009dd0"/><path d="M94,202H93l-8,0V189Z" transform="translate(-6 -14)" style="fill:#0196c8"/></svg>