<svg xmlns="http://www.w3.org/2000/svg" viewBox="0 0 64 64"><g data-name="Layer 23"><path fill="#c7e2fc" d="M55,56H21v2a4,4,0,0,1-4,4h0a4,4,0,0,1-4-4V6A4,4,0,0,0,9,2H49a6,6,0,0,1,6,6Z"/><path fill="#dbedfd" d="M48,11.5A38.117,38.117,0,0,0,46.8,2H9a4,4,0,0,1,4,4V49.8A38.7,38.7,0,0,0,48,11.5Z"/><path fill="#f2c351" d="M47,40.089h0a4.612,4.612,0,0,1-1.351,3.262l-.3.3A4.612,4.612,0,0,1,42.089,45H25.911a4.612,4.612,0,0,1-3.262-1.351l-.3-.3A4.612,4.612,0,0,1,21,40.089h0a4.615,4.615,0,0,1,.487-2.063l9.619-19.237A3.236,3.236,0,0,1,34,17h0a3.236,3.236,0,0,1,2.894,1.789l9.619,19.237A4.615,4.615,0,0,1,47,40.089Z"/><path fill="#f5cf74" d="M36.894,18.789a3.235,3.235,0,0,0-5.788,0L21.487,38.026a4.613,4.613,0,0,0,.864,5.325l.3.3A4.612,4.612,0,0,0,25.911,45h2.318a38.938,38.938,0,0,0,14.6-14.342Z"/><path fill="#95aabd" d="M55 56H21v2a4 4 0 0 1-4 4H55a4 4 0 0 0 4-4V56zM9 2H9a4 4 0 0 1 4 4v8a0 0 0 0 1 0 0H5a0 0 0 0 1 0 0V6A4 4 0 0 1 9 2z"/><path d="M59,55H56V8a7.008,7.008,0,0,0-7-7H9A5.006,5.006,0,0,0,4,6v8a1,1,0,0,0,1,1h7V58a5.006,5.006,0,0,0,5,5H55a5.006,5.006,0,0,0,5-5V56A1,1,0,0,0,59,55ZM12,13H6V6a3,3,0,0,1,6,0Zm8,43v2a3,3,0,0,1-6,0V6a4.948,4.948,0,0,0-1.026-3H49a5.006,5.006,0,0,1,5,5V55H21A1,1,0,0,0,20,56Zm38,2a3,3,0,0,1-3,3H21a4.98,4.98,0,0,0,1-3V57H58Z"/><path d="M21.942,44.355A5.574,5.574,0,0,0,25.911,46H42.089a5.573,5.573,0,0,0,3.968-1.644l.3-.3A5.578,5.578,0,0,0,48,40.089a5.648,5.648,0,0,0-.592-2.51L37.789,18.342a4.236,4.236,0,0,0-7.578,0L20.592,37.579A5.648,5.648,0,0,0,20,40.089a5.579,5.579,0,0,0,1.645,3.971Zm.439-5.881L32,19.236a2.236,2.236,0,0,1,4,0l9.619,19.238A3.635,3.635,0,0,1,46,40.089a3.592,3.592,0,0,1-1.057,2.555l-.3.3A3.589,3.589,0,0,1,42.089,44H25.911a3.59,3.59,0,0,1-2.556-1.06l-.3-.295A3.593,3.593,0,0,1,22,40.089,3.635,3.635,0,0,1,22.381,38.474Z"/><path d="M34 35a1 1 0 0 0 1-1V25a1 1 0 0 0-2 0v9A1 1 0 0 0 34 35zM34 40a1 1 0 0 0 1-1V38a1 1 0 0 0-2 0v1A1 1 0 0 0 34 40z"/></g></svg>