<?xml version="1.0" encoding="utf-8"?>
<!-- Generator: Adobe Illustrator 24.0.1, SVG Export Plug-In . SVG Version: 6.00 Build 0)  -->
<svg version="1.1" id="Camada_1" xmlns="http://www.w3.org/2000/svg" xmlns:xlink="http://www.w3.org/1999/xlink" x="0px" y="0px"
	 viewBox="0 0 346.3 343.8" style="enable-background:new 0 0 346.3 343.8;" xml:space="preserve">
<g transform="translate(0.000000,380.000000) scale(0.100000,-0.100000)">
	<path d="M1577.6,3752.2c-22-2-91-13-153-23c-436-77-844-348-1099-730c-325-487-364-1141-98-1670c218-433,609-751,1077-874
		c160-42,234-50,433-50c219,0,335,18,538,85c350,116,680,376,880,692c98,154,189,383,228,574c26,128,36,387,20,519
		c-95,780-708,1383-1496,1474C1822.6,3758.2,1664.6,3760.2,1577.6,3752.2z M1902.6,3554.2c508-60,937-360,1159-810
		c68-137,102-234,133-379c31-147,31-426-1-576c-30-143-62-235-125-365c-167-342-476-619-831-744c-661-234-1380,11-1760,598
		c-55,84-132,247-163,341c-117,354-88,766,78,1105c222,458,656,768,1160,830C1694.6,3571.2,1755.6,3571.2,1902.6,3554.2z"/>
	<path d="M1622.6,3422.2c-416-33-814-276-1035-633c-282-457-269-1014,34-1475c59-90,244-276,341-342c416-283,931-318,1376-93
		c375,189,624,516,716,938c28,128,30,386,4,507c-42,194-109,358-213,514c-73,110-243,279-353,352
		C2226.6,3367.2,1929.6,3446.2,1622.6,3422.2z M962.6,2510.2c0-20-18-31-54-31c-45,0-46-8-46-322v-297l36-7c36-7,193,2,219,12
		c8,3,19,30,26,60c11,47,15,54,36,54h24l-7-92c-4-51-12-96-18-100s-129-7-273-6c-234,2-263,4-263,19c0,9,11,21,24,27
		c32,14,36,56,35,346c-2,299-2,299-54,306c-32,4-41,10-43,28l-3,22h180C952.6,2529.2,962.6,2528.2,962.6,2510.2z M1622.6,2282.2
		c86-35,125-111,124-238c-1-181-114-286-293-273c-160,12-244,122-227,300c13,138,75,205,216,231
		C1481.6,2310.2,1583.6,2298.2,1622.6,2282.2z M2165.6,2277.2c37-16,61-20,112-15c36,2,67,1,70-3c3-5-3-22-12-39c-16-27-23-31-61-31
		s-43-2-37-19c3-10,1-41-5-67c-20-90-96-143-219-153c-54-4-77-11-85-23c-21-35,7-43,172-49c86-3,164-8,173-12c48-23,65-137,30-212
		c-26-57-99-118-166-140c-43-13-80-16-154-13c-88,3-104,7-147,34c-59,36-82,85-68,142c7,28,20,44,57,68c47,31,47,32,22,38
		c-57,14-51,108,10,146c19,12,35,25,35,28c-1,4-15,16-32,27s-40,32-51,47c-27,36-27,124,0,170
		C1865.6,2298.2,2032.6,2333.2,2165.6,2277.2z M2742.6,2271.2c74-37,102-86,108-192c12-200-101-321-287-308c-113,8-195,69-221,164
		c-20,69-9,200,21,254C2424.6,2300.2,2604.6,2339.2,2742.6,2271.2z"/>
	<path d="M1419.6,2218.2c-30-30-35-42-41-105c-12-121,18-249,63-274c35-18,90-12,116,14c31,31,39,76,33,199c-6,138-29,182-102,194
		C1457.6,2251.2,1448.6,2247.2,1419.6,2218.2z"/>
	<path d="M1977.6,2237.2c-35-19-45-41-45-100c0-62,18-111,45-122c31-12,75-6,94,13c24,24,35,99,21,150
		C2076.6,2239.2,2027.6,2265.2,1977.6,2237.2z"/>
	<path d="M1903.6,1734.2c-90-102,23-212,179-175c74,18,110,57,110,121c0,79-17,89-149,89h-109L1903.6,1734.2z"/>
	<path d="M2545.6,2239.2c-45-18-58-56-58-170c0-128,8-170,41-210c21-25,33-30,69-30c58,0,90,36,100,115c8,70-1,177-21,233
		C2654.6,2237.2,2602.6,2262.2,2545.6,2239.2z"/>
</g>
</svg>
