<svg id="Camada_1" data-name="Camada 1" xmlns="http://www.w3.org/2000/svg" width="3008" height="729" viewBox="0 0 3008 729">
  <title>teste</title>
  <g>
    <path d="M920.08,93.87c3.72.37,7.43,1,11.16,1.06,4.3.08,8.61-.48,12.92-.48l2055.41,0c2.47,0,4.95-.27,7.43-.41v19c-3.95,12.64-8.2,25.2-11.75,37.95-2.1,7.52-3.1,15.34-4.6,23l-68.48-1c-.06-5.33-.34-10.67-.09-16,.17-3.43-1.1-4.44-4.25-4a31.22,31.22,0,0,1-4,0H816c-8.33,0-16.66-.1-25-.15.64-1.86,1-3.89,1.95-5.56q15.42-26.72,31-53.33a23,23,0,0,0,4.67,1q43.42.09,86.85,0C917,95,918.54,94.24,920.08,93.87Z" style="fill: #009bce"/>
    <path d="M59,15.88A3.69,3.69,0,0,0,59,15H848a7.89,7.89,0,0,0,0,.84l-8,0H155.4Q107.18,15.82,59,15.88Z" style="fill: #bfecfc"/>
    <path d="M59,15.88q48.23,0,96.44-.06H840.06l8,0,17,4.11q-9,16.23-18,32.46Q835.51,73.19,823.94,94q-15.53,26.65-31,53.33c-1,1.67-1.31,3.7-1.95,5.56-2.69,2.56-6.12,4.69-8,7.77q-28.69,48.19-56.93,96.67-28.83,49.23-57.53,98.54c-13.14,22.47-26.46,44.85-39.56,67.36q-26.35,45.3-52.47,90.75c-13.77,24-29.46,46.92-39.73,72.82-1.6,4-3.11,8.12-4.66,12.19-1.61,2.08-3.32,4.1-4.82,6.27-5.15,7.45-10.24,15-15.35,22.45-3.63,5.56-7.43,11-10.87,16.68q-23.55,38.73-46.94,77.55c-.41.69-.94,1.31-1.89,2.59l-10.77-17.37L407.81,653l-.8-2-12.13-23c-.6-1-1.23-2-1.81-3q-30.66-52.23-61.33-104.46c-17-28.93-34.2-57.77-51.25-86.68q-32-54.33-64-108.69-29-49.19-58-98.31-20.37-34.57-40.64-69.2C106.12,137.81,94.21,118,82.61,98.05,73.68,82.68,65.05,67.12,56.4,51.59c-5.25-9.42-10.3-19-15.43-28.44Z" style="fill: #00b6f3"/>
    <path d="M512,627.66c5.11-7.49,10.2-15,15.35-22.45,1.5-2.17,3.21-4.19,4.82-6.27,2.16,0,4.33,0,6.49,0h2289.6a31.24,31.24,0,0,1,3.49,0c2.63.3,3.82-.73,4.42-3.39,2.84-12.61,6-25.14,8.84-37.76,3.15-14.26,6-28.58,9-42.87h72.87c-1.29,7.65-2.5,15.31-3.88,22.94-1.55,8.53-3.31,17-4.89,25.54q-1.76,9.49-3.29,19c-2.26,13.91-4.59,27.82-6.59,41.77-.43,3-1.42,4.12-4.34,3.76a33.32,33.32,0,0,0-4,0H1236.66c-3.83,0-7.66.05-11.49.08-.83,0-1.67-.08-2.5-.08q-291,0-582,0a23.56,23.56,0,0,0-4.68,1Z" style="fill: #03b1e6"/>
    <path d="M636,629a23.56,23.56,0,0,1,4.68-1q291-.06,582,0c.83,0,1.67.05,2.5.08.87,2.11,1.58,4.3,2.64,6.31q18.89,35.46,37.85,70.89c2.89,5.41,2.7,5.69-3.35,5.7l-253,.24-301.45.34c-3.82,0-7.64-.11-11.46-.16-11.18-.15-18.4-5.84-23.6-15.53C660.82,673.45,648.32,651.28,636,629Z" style="fill: #00baf8"/>
    <path d="M2926.84,515H2854a26.77,26.77,0,0,1,.27-3.48c6.29-30.86,12.71-61.69,18.91-92.57,7.81-39,15.45-78,23.17-116.94l70.45,1c-2.89,15.24-5.87,30.46-8.65,45.72-3.46,19-6.58,38.1-10.14,57.09-4.44,23.66-9.25,47.25-13.79,70.89-2.14,11.16-4,22.38-6.07,33.57C2927.83,511.87,2927.27,513.42,2926.84,515Z" style="fill: #04c1f9"/>
    <path d="M244.8,511.45,215,456.93c-1-7.51-.38-15.64-3.17-22.39-5.06-12.23-11.92-23.74-18.39-35.35q-16-28.71-32.48-57.13c-6-10.45-11.22-21.62-20.93-29.45-5-4-10.18-7.64-15.28-11.44l.09.05-.81-1.23c-3.82-5.19-8.15-10.08-11.36-15.63C104.2,269.72,96.21,254.8,88,240c1.49.68,3.27,1,4.43,2.08,11.91,10.74,24,21.31,35.48,32.48,17.36,16.86,30.84,36.75,43.18,57.46,1.54,2.59,3.91,4.67,5.9,7l1,2,2,3,11,19,3,5,1,3a19.6,19.6,0,0,0,1.13,3.26c7.32,13.18,14.64,26.37,22.09,39.49,1.65,2.91,3.8,5.53,5.72,8.29,3.26,9.06,6.57,18.11,9.78,27.18.9,2.56,1.53,5.21,2.28,7.82-.41,1.2-1.39,2.53-1.16,3.59,1.77,8.22,4,16.34,5.65,24.58C242.21,493.88,243.39,502.68,244.8,511.45Z" style="fill: #01b3e8"/>
    <path d="M2966.77,303l-70.45-1q5.37-24.5,10.73-49c2.78.33,5.55.81,8.34.95,20.13,1.06,40.26,2,60.39,3.05Q2971.28,280,2966.77,303Z" style="fill: #03bbf2"/>
    <path d="M236,457c-.76-2.61-1.39-5.26-2.29-7.82-3.21-9.07-6.52-18.12-9.78-27.18l1-2a22.44,22.44,0,0,1,2.51,2.94c4.95,8.24,9.84,16.52,14.75,24.79,7.7,13,16,25.64,23,39,9.15,17.46,17,35.58,25.88,53.2,12.61,25.1,25.62,50,38.41,75,2,3.92,3.73,8,5.59,12-3.1.36-6.19.74-9.28,1.06-3.26.33-6.52.59-9.78.88-2.57-4-5.31-7.92-7.67-12-6.91-12-13.66-24.17-20.47-36.26-.41-5.42.43-11.33-1.44-16.19-10.93-28.26-20.73-57.05-36-83.45-4.29-7.42-8.93-14.63-13.41-21.93Z" style="fill: #019bcd"/>
    <path d="M2922.17,173l68.48,1q-3.9,21-7.79,42l-68.46-1.18c.41-2.27.82-4.54,1.25-6.82Q2918.91,190.5,2922.17,173Z" style="fill: #03aade"/>
    <path d="M2914.4,214.82l68.46,1.18q-3.24,18.08-6.47,36.16c-.29,1.6-.41,3.23-.61,4.84-20.13-1-40.26-2-60.39-3.05-2.79-.14-5.56-.62-8.34-.95.27-4.56,0-9.22.93-13.64,1.24-6.07,3.37-12,5-17.93C2913.61,219.26,2913.94,217,2914.4,214.82Z" style="fill: #03b2e8"/>
    <path d="M7.76,102l3.36-13c3.74.67,7.51,1.18,11.19,2,9.62,2.25,19.23,4.56,28.78,7.06,3.95,1,5.23,3.93,5,8-1.14,17.73,3.72,34.1,11.84,49.63C73.2,165.87,78.63,175.92,84,186c-1.59-1.09-3.42-1.95-4.73-3.31C66,168.88,53,154.8,39.51,141.22c-4.28-4.31-9.84-7.35-14.81-11l.1,0L24,129c-4.74-6.51-9.65-12.91-14.1-19.61C8.53,107.36,8.44,104.49,7.76,102Z" style="fill: #0197c8"/>
    <path d="M316,628.87c3.26-.29,6.52-.55,9.78-.88,3.09-.32,6.18-.7,9.27-1.06a38,38,0,0,0,4,.47q27.94.33,55.91.62L407,651l-6,4-2,1-10,3h-2l-3,1-5,0H369l-7,0-4-1h-1l-8-2-1,0-5-3-3,0-4-3h-1l-6-5-2-1-6-6-3-4-2-4Z" style="fill: #edeeef"/>
    <path d="M177,339c-2-2.32-4.36-4.4-5.9-7-12.34-20.71-25.82-40.6-43.18-57.46-11.49-11.17-23.57-21.74-35.48-32.48-1.16-1-2.94-1.4-4.43-2.08h0l-1.09-2q-14.57-25-29.12-50,7.88,4,15.75,8c6.49,3.29,12.31,8.56,20.46,7l1,5c-3.49,2-5,5.45-3.64,8.84,1,2.3,3.91,4,6.3,5.37,1.44.84,3.52.57,5.31.8.9,1.39,1.71,2.84,2.71,4.16,8.12,10.69,17,20.87,24.25,32.13,12.09,18.87,23.14,38.4,34.54,57.7C168.76,324.27,172.83,331.66,177,339Z" style="fill: #01a6d9"/>
    <path d="M124.77,301.17c5.1,3.8,10.33,7.45,15.28,11.44,9.71,7.83,14.88,19,20.93,29.45q16.46,28.44,32.48,57.13c6.47,11.61,13.33,23.12,18.39,35.35,2.79,6.75,2.22,14.88,3.17,22.39-14.48-23.49-29.46-46.69-43.31-70.55-15.79-27.19-30.57-55-45.78-82.48A26.3,26.3,0,0,1,124.77,301.17Z" style="fill: #03bcf3"/>
    <path d="M237,459c4.48,7.3,9.12,14.51,13.41,21.93,15.24,26.4,25,55.19,36,83.45,1.87,4.86,1,10.77,1.44,16.19q-18.9-29.32-37.77-58.68a17,17,0,0,1-1.27-3.21c-.44-3.92-.57-7.9-1.38-11.75C244.05,490.92,240.49,475,237,459Z" style="fill: #02a9dd"/>
    <path d="M94,203c-8.15,1.59-14-3.68-20.46-7q-7.89-4-15.75-8-16.56-28.91-33.1-57.81c5,3.62,10.53,6.66,14.81,11C53,154.8,66,168.88,79.26,182.69c1.31,1.36,3.14,2.22,4.73,3.31Z" style="fill: #029ed0"/>
    <path d="M237,459c3.48,16,7,31.93,10.4,47.93.81,3.85.94,7.83,1.38,11.75l-4-7.22c-1.41-8.77-2.59-17.57-4.31-26.28-1.62-8.24-3.88-16.36-5.65-24.58-.23-1.06.75-2.39,1.16-3.59Z" style="fill: #01b2e8"/>
    <path d="M86.92,238,88,240Z" style="fill: #01b3e8"/>
    <path d="M24,129l.81,1.28Z" style="fill: #029ed0"/>
    <path d="M124.05,300l.81,1.23Z" style="fill: #03bcf3"/>
    <path d="M823.94,94q11.56-20.76,23.12-41.54,9-16.21,18-32.46a11.72,11.72,0,0,1,2.61,2q25.89,35.28,51.68,70.62a9.51,9.51,0,0,1,.7,1.3c-1.54.37-3.08,1.08-4.62,1.08q-43.43.1-86.85,0A23,23,0,0,1,823.94,94Z" style="fill: #038fbe"/>
    <path d="M2914.4,214.82c-.46,2.21-.79,4.44-1.39,6.61-1.66,6-3.79,11.86-5,17.93-.9,4.42-.66,9.08-.93,13.64q-5.37,24.5-10.73,49c-7.72,39-15.36,78-23.17,116.94-6.2,30.88-12.62,61.71-18.91,92.57A26.77,26.77,0,0,0,2854,515c-3,14.29-5.83,28.61-9,42.87-2.79,12.62-6,25.15-8.84,37.76-.6,2.66-1.79,3.69-4.42,3.39a31.24,31.24,0,0,0-3.49,0H538.64c-2.16,0-4.33,0-6.49,0,1.55-4.07,3.06-8.15,4.66-12.19,10.27-25.9,26-48.83,39.73-72.82q26.1-45.45,52.47-90.75c13.1-22.51,26.42-44.89,39.56-67.36q28.81-49.24,57.53-98.54,28.33-48.42,56.93-96.67c1.83-3.08,5.26-5.21,8-7.77,8.33,0,16.66.15,25,.15H2913.84a31.22,31.22,0,0,0,4,0c3.15-.4,4.42.61,4.25,4-.25,5.31,0,10.65.09,16q-3.27,17.5-6.52,35C2915.22,210.28,2914.81,212.55,2914.4,214.82Z" style="fill: #eaeaea"/>
    <path d="M94,203,84,186c-5.36-10.08-10.79-20.13-16.09-30.25-8.12-15.53-13-31.9-11.84-49.63.26-4.09-1-7-5-8C41.54,95.6,31.93,93.29,22.31,91c-3.68-.86-7.45-1.37-11.19-2Q25.81,56.12,40.49,23.26c0-.09.31-.08.48-.11,5.13,9.48,10.18,19,15.43,28.44,8.65,15.53,17.28,31.09,26.21,46.46,11.6,20,23.51,39.76,35.23,59.66q20.35,34.57,40.64,69.2,29,49.17,58,98.31,32,54.31,64,108.69c17.05,28.91,34.22,57.75,51.25,86.68q30.74,52.18,61.33,104.46c.58,1,1.21,2,1.81,3q-28-.3-55.91-.62a38,38,0,0,1-4-.47c-1.85-4-3.57-8.08-5.58-12-12.79-25-25.8-49.9-38.41-75-8.85-17.62-16.73-35.74-25.88-53.2-7-13.35-15.26-26-23-39-4.91-8.27-9.8-16.55-14.75-24.79a22.44,22.44,0,0,0-2.51-2.94c-7.7-13.25-15.34-26.53-23.17-39.7-1.95-3.3-4.49-6.24-6.76-9.35l-1-3-3-5-11-19-2-3-1-2c-4.17-7.34-8.24-14.73-12.53-22-11.4-19.3-22.45-38.83-34.54-57.7-7.22-11.26-16.13-21.44-24.25-32.13-1-1.32-1.81-2.77-2.71-4.16l-8-15Z" style="fill: #018bb7"/>
    <path d="M195,371c2.27,3.11,4.81,6.05,6.76,9.35,7.83,13.17,15.47,26.45,23.17,39.7l-1,2c-1.92-2.76-4.07-5.38-5.72-8.29-7.45-13.12-14.77-26.31-22.09-39.49A19.6,19.6,0,0,1,195,371Z" style="fill: #00b0e6"/>
    <path d="M191,363l3,5Z" style="fill: #00b0e6"/>
    <path d="M178,341l2,3Z" style="fill: #01a6d9"/>
    <path d="M95,208l8,15c-1.79-.23-3.87,0-5.31-.8-2.39-1.38-5.34-3.07-6.3-5.37C90,213.45,91.51,210,95,208Z" style="fill: #029ed0"/>
  </g>
</svg>
