<svg xmlns="http://www.w3.org/2000/svg" data-name="Layer 1" viewBox="0 0 32 32"><rect width="18" height="15" x="2" y="6" fill="#8a8790" rx="1"/><rect width="14" height="9" x="4" y="8" fill="#4eb9e9" rx=".5"/><path fill="#58565d" d="M2,19H20a0,0,0,0,1,0,0v1a1,1,0,0,1-1,1H3a1,1,0,0,1-1-1V19A0,0,0,0,1,2,19Z"/><rect width="9" height="19" x="22" y="6" fill="#aeadb2" rx="1"/><path fill="#8a8790" d="M14.19,25H7.81a.5.5,0,0,1-.45-.72L9,21h4l1.64,3.28A.5.5,0,0,1,14.19,25Z"/><rect width="5" height="2" x="24" y="8" fill="#d8d7d9" rx=".5"/><rect width="9" height="3" x="22" y="20" fill="#8a8790"/><path fill="#58565d" d="M22,23h9a0,0,0,0,1,0,0v1a1,1,0,0,1-1,1H23a1,1,0,0,1-1-1V23A0,0,0,0,1,22,23Z"/><path d="M25,15.5H24a.5.5,0,0,0,0,1h1a.5.5,0,0,0,0-1Zm5-10H23A1.5,1.5,0,0,0,21.5,7V24A1.5,1.5,0,0,0,23,25.5h7A1.5,1.5,0,0,0,31.5,24V7A1.5,1.5,0,0,0,30,5.5ZM30.5,24a.5.5,0,0,1-.5.5H23a.5.5,0,0,1-.5-.5v-.5h8Zm0-1.5h-8v-2h8Zm0-3h-8V7a.5.5,0,0,1,.5-.5h7a.5.5,0,0,1,.5.5Zm-2-8a1,1,0,1,0,1,1A1,1,0,0,0,28.5,11.5Zm0,1Zm-11-5H4.5a1,1,0,0,0-1,1v8a1,1,0,0,0,1,1h13a1,1,0,0,0,1-1v-8A1,1,0,0,0,17.5,7.5Zm0,9H4.5v-8h13Zm8.5-4a.5.5,0,1,0,.5.5A.5.5,0,0,0,26,12.5Zm-1,5H24a.5.5,0,0,0,0,1h1a.5.5,0,0,0,0-1Zm-6-12H3A1.5,1.5,0,0,0,1.5,7V20A1.5,1.5,0,0,0,3,21.5H8.19L6.91,24.05a1,1,0,0,0,.9,1.45h6.38a1,1,0,0,0,.9-1.45L13.81,21.5H19A1.5,1.5,0,0,0,20.5,20V7A1.5,1.5,0,0,0,19,5.5Zm-4.81,19v0H7.81l1.5-3h3.38ZM19.5,20a.5.5,0,0,1-.5.5H3a.5.5,0,0,1-.5-.5v-.5h17Zm0-1.5H2.5V7A.5.5,0,0,1,3,6.5H19a.5.5,0,0,1,.5.5Zm9-11h-4a1,1,0,0,0-1,1v1a1,1,0,0,0,1,1h4a1,1,0,0,0,1-1v-1A1,1,0,0,0,28.5,7.5Zm0,2.5V9.5h-4v-1h4v1h0Z"/></svg>